<svg width="1202" height="80" viewBox="0 0 1202 80" fill="none" xmlns="http://www.w3.org/2000/svg">
<line x1="1" y1="16" x2="1" y2="64" stroke="white" stroke-width="2" stroke-dasharray="4 4"/>
<line x1="11" y1="5" x2="11" y2="75" stroke="white" stroke-width="2" stroke-dasharray="4 4"/>
<line x1="21" y1="16" x2="21" y2="64" stroke="white" stroke-width="2" stroke-dasharray="4 4"/>
<line x1="31" y1="30" x2="31" y2="50" stroke="white" stroke-width="2" stroke-dasharray="4 4"/>
<line x1="41" y1="11" x2="41" y2="69" stroke="white" stroke-width="2" stroke-dasharray="4 4"/>
<line x1="51" y1="-1.09279e-08" x2="51" y2="80" stroke="white" stroke-width="2" stroke-dasharray="4 4"/>
<line x1="61" y1="11" x2="61" y2="69" stroke="white" stroke-width="2" stroke-dasharray="4 4"/>
<line x1="71" y1="16" x2="71" y2="64" stroke="white" stroke-width="2" stroke-dasharray="4 4"/>
<line x1="81" y1="5" x2="81" y2="75" stroke="white" stroke-width="2" stroke-dasharray="4 4"/>
<line x1="91" y1="16" x2="91" y2="64" stroke="white" stroke-width="2" stroke-dasharray="4 4"/>
<line x1="101" y1="30" x2="101" y2="50" stroke="white" stroke-width="2" stroke-dasharray="4 4"/>
<line x1="111" y1="11" x2="111" y2="69" stroke="white" stroke-width="2" stroke-dasharray="4 4"/>
<line x1="121" y1="-1.09279e-08" x2="121" y2="80" stroke="white" stroke-width="2" stroke-dasharray="4 4"/>
<line x1="131" y1="11" x2="131" y2="69" stroke="white" stroke-width="2" stroke-dasharray="4 4"/>
<line x1="141" y1="16" x2="141" y2="64" stroke="white" stroke-width="2" stroke-dasharray="4 4"/>
<line x1="151" y1="5" x2="151" y2="75" stroke="white" stroke-width="2" stroke-dasharray="4 4"/>
<line x1="161" y1="16" x2="161" y2="64" stroke="white" stroke-width="2" stroke-dasharray="4 4"/>
<line x1="171" y1="30" x2="171" y2="50" stroke="white" stroke-width="2" stroke-dasharray="4 4"/>
<line x1="181" y1="11" x2="181" y2="69" stroke="white" stroke-width="2" stroke-dasharray="4 4"/>
<line x1="191" y1="-1.09279e-08" x2="191" y2="80" stroke="white" stroke-width="2" stroke-dasharray="4 4"/>
<line x1="201" y1="11" x2="201" y2="69" stroke="white" stroke-width="2" stroke-dasharray="4 4"/>
<line x1="211" y1="16" x2="211" y2="64" stroke="white" stroke-width="2" stroke-dasharray="4 4"/>
<line x1="221" y1="5" x2="221" y2="75" stroke="white" stroke-width="2" stroke-dasharray="4 4"/>
<line x1="231" y1="16" x2="231" y2="64" stroke="white" stroke-width="2" stroke-dasharray="4 4"/>
<line x1="241" y1="30" x2="241" y2="50" stroke="white" stroke-width="2" stroke-dasharray="4 4"/>
<line x1="251" y1="11" x2="251" y2="69" stroke="white" stroke-width="2" stroke-dasharray="4 4"/>
<line x1="261" y1="-1.09279e-08" x2="261" y2="80" stroke="white" stroke-width="2" stroke-dasharray="4 4"/>
<line x1="271" y1="11" x2="271" y2="69" stroke="white" stroke-width="2" stroke-dasharray="4 4"/>
<line x1="281" y1="16" x2="281" y2="64" stroke="white" stroke-width="2" stroke-dasharray="4 4"/>
<line x1="291" y1="5" x2="291" y2="75" stroke="white" stroke-width="2" stroke-dasharray="4 4"/>
<line x1="301" y1="16" x2="301" y2="64" stroke="white" stroke-width="2" stroke-dasharray="4 4"/>
<line x1="311" y1="30" x2="311" y2="50" stroke="white" stroke-width="2" stroke-dasharray="4 4"/>
<line x1="321" y1="11" x2="321" y2="69" stroke="white" stroke-width="2" stroke-dasharray="4 4"/>
<line x1="331" y1="-1.09279e-08" x2="331" y2="80" stroke="white" stroke-width="2" stroke-dasharray="4 4"/>
<line x1="341" y1="11" x2="341" y2="69" stroke="white" stroke-width="2" stroke-dasharray="4 4"/>
<line x1="351" y1="16" x2="351" y2="64" stroke="white" stroke-width="2" stroke-dasharray="4 4"/>
<line x1="361" y1="5" x2="361" y2="75" stroke="white" stroke-width="2" stroke-dasharray="4 4"/>
<line x1="371" y1="16" x2="371" y2="64" stroke="white" stroke-width="2" stroke-dasharray="4 4"/>
<line x1="381" y1="30" x2="381" y2="50" stroke="white" stroke-width="2" stroke-dasharray="4 4"/>
<line x1="391" y1="11" x2="391" y2="69" stroke="white" stroke-width="2" stroke-dasharray="4 4"/>
<line x1="401" y1="-1.09279e-08" x2="401" y2="80" stroke="white" stroke-width="2" stroke-dasharray="4 4"/>
<line x1="411" y1="11" x2="411" y2="69" stroke="white" stroke-width="2" stroke-dasharray="4 4"/>
<line x1="421" y1="16" x2="421" y2="64" stroke="white" stroke-width="2" stroke-dasharray="4 4"/>
<line x1="431" y1="5" x2="431" y2="75" stroke="white" stroke-width="2" stroke-dasharray="4 4"/>
<line x1="441" y1="16" x2="441" y2="64" stroke="white" stroke-width="2" stroke-dasharray="4 4"/>
<line x1="451" y1="30" x2="451" y2="50" stroke="white" stroke-width="2" stroke-dasharray="4 4"/>
<line x1="461" y1="11" x2="461" y2="69" stroke="white" stroke-width="2" stroke-dasharray="4 4"/>
<line x1="471" y1="-1.09279e-08" x2="471" y2="80" stroke="white" stroke-width="2" stroke-dasharray="4 4"/>
<line x1="481" y1="11" x2="481" y2="69" stroke="white" stroke-width="2" stroke-dasharray="4 4"/>
<line x1="491" y1="16" x2="491" y2="64" stroke="white" stroke-width="2" stroke-dasharray="4 4"/>
<line x1="501" y1="5" x2="501" y2="75" stroke="white" stroke-width="2" stroke-dasharray="4 4"/>
<line x1="511" y1="16" x2="511" y2="64" stroke="white" stroke-width="2" stroke-dasharray="4 4"/>
<line x1="521" y1="30" x2="521" y2="50" stroke="white" stroke-width="2" stroke-dasharray="4 4"/>
<line x1="531" y1="11" x2="531" y2="69" stroke="white" stroke-width="2" stroke-dasharray="4 4"/>
<line x1="541" y1="-1.09279e-08" x2="541" y2="80" stroke="white" stroke-width="2" stroke-dasharray="4 4"/>
<line x1="551" y1="11" x2="551" y2="69" stroke="white" stroke-width="2" stroke-dasharray="4 4"/>
<line x1="561" y1="16" x2="561" y2="64" stroke="white" stroke-width="2" stroke-dasharray="4 4"/>
<line x1="571" y1="5" x2="571" y2="75" stroke="white" stroke-width="2" stroke-dasharray="4 4"/>
<line x1="581" y1="16" x2="581" y2="64" stroke="white" stroke-width="2" stroke-dasharray="4 4"/>
<line x1="591" y1="30" x2="591" y2="50" stroke="white" stroke-width="2" stroke-dasharray="4 4"/>
<line x1="601" y1="11" x2="601" y2="69" stroke="white" stroke-width="2" stroke-dasharray="4 4"/>
<line x1="611" y1="-1.09279e-08" x2="611" y2="80" stroke="white" stroke-width="2" stroke-dasharray="4 4"/>
<line x1="621" y1="11" x2="621" y2="69" stroke="white" stroke-width="2" stroke-dasharray="4 4"/>
<line x1="631" y1="16" x2="631" y2="64" stroke="white" stroke-width="2" stroke-dasharray="4 4"/>
<line x1="641" y1="5" x2="641" y2="75" stroke="white" stroke-width="2" stroke-dasharray="4 4"/>
<line x1="651" y1="16" x2="651" y2="64" stroke="white" stroke-width="2" stroke-dasharray="4 4"/>
<line x1="661" y1="30" x2="661" y2="50" stroke="white" stroke-width="2" stroke-dasharray="4 4"/>
<line x1="671" y1="11" x2="671" y2="69" stroke="white" stroke-width="2" stroke-dasharray="4 4"/>
<line x1="681" y1="-1.09279e-08" x2="681" y2="80" stroke="white" stroke-width="2" stroke-dasharray="4 4"/>
<line x1="691" y1="11" x2="691" y2="69" stroke="white" stroke-width="2" stroke-dasharray="4 4"/>
<line x1="701" y1="16" x2="701" y2="64" stroke="white" stroke-width="2" stroke-dasharray="4 4"/>
<line x1="711" y1="5" x2="711" y2="75" stroke="white" stroke-width="2" stroke-dasharray="4 4"/>
<line x1="721" y1="16" x2="721" y2="64" stroke="white" stroke-width="2" stroke-dasharray="4 4"/>
<line x1="731" y1="30" x2="731" y2="50" stroke="white" stroke-width="2" stroke-dasharray="4 4"/>
<line x1="741" y1="11" x2="741" y2="69" stroke="white" stroke-width="2" stroke-dasharray="4 4"/>
<line x1="751" y1="-1.09279e-08" x2="751" y2="80" stroke="white" stroke-width="2" stroke-dasharray="4 4"/>
<line x1="761" y1="11" x2="761" y2="69" stroke="white" stroke-width="2" stroke-dasharray="4 4"/>
<line x1="771" y1="16" x2="771" y2="64" stroke="white" stroke-width="2" stroke-dasharray="4 4"/>
<line x1="781" y1="5" x2="781" y2="75" stroke="white" stroke-width="2" stroke-dasharray="4 4"/>
<line x1="791" y1="16" x2="791" y2="64" stroke="white" stroke-width="2" stroke-dasharray="4 4"/>
<line x1="801" y1="30" x2="801" y2="50" stroke="white" stroke-width="2" stroke-dasharray="4 4"/>
<line x1="811" y1="11" x2="811" y2="69" stroke="white" stroke-width="2" stroke-dasharray="4 4"/>
<line x1="821" y1="-1.09279e-08" x2="821" y2="80" stroke="white" stroke-width="2" stroke-dasharray="4 4"/>
<line x1="831" y1="11" x2="831" y2="69" stroke="white" stroke-width="2" stroke-dasharray="4 4"/>
<line x1="841" y1="16" x2="841" y2="64" stroke="white" stroke-width="2" stroke-dasharray="4 4"/>
<line x1="851" y1="5" x2="851" y2="75" stroke="white" stroke-width="2" stroke-dasharray="4 4"/>
<line x1="861" y1="16" x2="861" y2="64" stroke="white" stroke-width="2" stroke-dasharray="4 4"/>
<line x1="871" y1="30" x2="871" y2="50" stroke="white" stroke-width="2" stroke-dasharray="4 4"/>
<line x1="881" y1="11" x2="881" y2="69" stroke="white" stroke-width="2" stroke-dasharray="4 4"/>
<line x1="891" y1="-1.09279e-08" x2="891" y2="80" stroke="white" stroke-width="2" stroke-dasharray="4 4"/>
<line x1="901" y1="11" x2="901" y2="69" stroke="white" stroke-width="2" stroke-dasharray="4 4"/>
<line x1="911" y1="16" x2="911" y2="64" stroke="white" stroke-width="2" stroke-dasharray="4 4"/>
<line x1="921" y1="5" x2="921" y2="75" stroke="white" stroke-width="2" stroke-dasharray="4 4"/>
<line x1="931" y1="16" x2="931" y2="64" stroke="white" stroke-width="2" stroke-dasharray="4 4"/>
<line x1="941" y1="30" x2="941" y2="50" stroke="white" stroke-width="2" stroke-dasharray="4 4"/>
<line x1="951" y1="11" x2="951" y2="69" stroke="white" stroke-width="2" stroke-dasharray="4 4"/>
<line x1="961" y1="-1.09279e-08" x2="961" y2="80" stroke="white" stroke-width="2" stroke-dasharray="4 4"/>
<line x1="971" y1="11" x2="971" y2="69" stroke="white" stroke-width="2" stroke-dasharray="4 4"/>
<line x1="981" y1="16" x2="981" y2="64" stroke="white" stroke-width="2" stroke-dasharray="4 4"/>
<line x1="991" y1="5" x2="991" y2="75" stroke="white" stroke-width="2" stroke-dasharray="4 4"/>
<line x1="1001" y1="16" x2="1001" y2="64" stroke="white" stroke-width="2" stroke-dasharray="4 4"/>
<line x1="1011" y1="30" x2="1011" y2="50" stroke="white" stroke-width="2" stroke-dasharray="4 4"/>
<line x1="1021" y1="11" x2="1021" y2="69" stroke="white" stroke-width="2" stroke-dasharray="4 4"/>
<line x1="1031" y1="-1.09279e-08" x2="1031" y2="80" stroke="white" stroke-width="2" stroke-dasharray="4 4"/>
<line x1="1041" y1="11" x2="1041" y2="69" stroke="white" stroke-width="2" stroke-dasharray="4 4"/>
<line x1="1051" y1="16" x2="1051" y2="64" stroke="white" stroke-width="2" stroke-dasharray="4 4"/>
<line x1="1061" y1="5" x2="1061" y2="75" stroke="white" stroke-width="2" stroke-dasharray="4 4"/>
<line x1="1071" y1="16" x2="1071" y2="64" stroke="white" stroke-width="2" stroke-dasharray="4 4"/>
<line x1="1081" y1="30" x2="1081" y2="50" stroke="white" stroke-width="2" stroke-dasharray="4 4"/>
<line x1="1091" y1="11" x2="1091" y2="69" stroke="white" stroke-width="2" stroke-dasharray="4 4"/>
<line x1="1101" y1="-1.09279e-08" x2="1101" y2="80" stroke="white" stroke-width="2" stroke-dasharray="4 4"/>
<line x1="1111" y1="11" x2="1111" y2="69" stroke="white" stroke-width="2" stroke-dasharray="4 4"/>
<line x1="1111" y1="11" x2="1111" y2="69" stroke="white" stroke-width="2" stroke-dasharray="4 4"/>
<line x1="1121" y1="-1.09279e-08" x2="1121" y2="80" stroke="white" stroke-width="2" stroke-dasharray="4 4"/>
<line x1="1131" y1="11" x2="1131" y2="69" stroke="white" stroke-width="2" stroke-dasharray="4 4"/>
<line x1="1141" y1="16" x2="1141" y2="64" stroke="white" stroke-width="2" stroke-dasharray="4 4"/>
<line x1="1151" y1="5" x2="1151" y2="75" stroke="white" stroke-width="2" stroke-dasharray="4 4"/>
<line x1="1161" y1="16" x2="1161" y2="64" stroke="white" stroke-width="2" stroke-dasharray="4 4"/>
<line x1="1171" y1="30" x2="1171" y2="50" stroke="white" stroke-width="2" stroke-dasharray="4 4"/>
<line x1="1181" y1="11" x2="1181" y2="69" stroke="white" stroke-width="2" stroke-dasharray="4 4"/>
<line x1="1191" y1="-1.09279e-08" x2="1191" y2="80" stroke="white" stroke-width="2" stroke-dasharray="4 4"/>
<line x1="1201" y1="11" x2="1201" y2="69" stroke="white" stroke-width="2" stroke-dasharray="4 4"/>
</svg>
