<?xml version="1.0" encoding="UTF-8"?><svg id="Layer_1" xmlns="http://www.w3.org/2000/svg" viewBox="0 0 375.13 80"><defs><style>.cls-1{fill:none;stroke:#000;stroke-dasharray:0 0 0 0 0 0 16 6;stroke-width:2px;}</style></defs><line class="cls-1" x1="1" y1="16" x2="1" y2="64"/><line class="cls-1" x1="11" y1="5" x2="11" y2="75"/><line class="cls-1" x1="21" y1="16" x2="21" y2="64"/><line class="cls-1" x1="31" y1="30" x2="31" y2="50"/><line class="cls-1" x1="41" y1="11" x2="41" y2="69"/><line class="cls-1" x1="51" x2="51" y2="80"/><line class="cls-1" x1="61" y1="11" x2="61" y2="69"/><line class="cls-1" x1="71" y1="16" x2="71" y2="64"/><line class="cls-1" x1="81" y1="5" x2="81" y2="75"/><line class="cls-1" x1="91" y1="16" x2="91" y2="64"/><line class="cls-1" x1="101" y1="30" x2="101" y2="50"/><line class="cls-1" x1="111" y1="11" x2="111" y2="69"/><line class="cls-1" x1="121" x2="121" y2="80"/><line class="cls-1" x1="131" y1="11" x2="131" y2="69"/><line class="cls-1" x1="141" y1="16" x2="141" y2="64"/><line class="cls-1" x1="151" y1="5" x2="151" y2="75"/><line class="cls-1" x1="161" y1="16" x2="161" y2="64"/><line class="cls-1" x1="171" y1="30" x2="171" y2="50"/><line class="cls-1" x1="181" y1="11" x2="181" y2="69"/><line class="cls-1" x1="191" x2="191" y2="80"/><line class="cls-1" x1="201" y1="11" x2="201" y2="69"/><line class="cls-1" x1="211" y1="16" x2="211" y2="64"/><line class="cls-1" x1="221" y1="5" x2="221" y2="75"/><line class="cls-1" x1="231" y1="16" x2="231" y2="64"/><line class="cls-1" x1="241" y1="30" x2="241" y2="50"/><line class="cls-1" x1="251" y1="11" x2="251" y2="69"/><line class="cls-1" x1="261" x2="261" y2="80"/><line class="cls-1" x1="271" y1="11" x2="271" y2="69"/><line class="cls-1" x1="281" y1="16" x2="281" y2="64"/><line class="cls-1" x1="291" y1="5" x2="291" y2="75"/><line class="cls-1" x1="301" y1="16" x2="301" y2="64"/><line class="cls-1" x1="311" y1="30" x2="311" y2="50"/><line class="cls-1" x1="321" y1="11" x2="321" y2="69"/><line class="cls-1" x1="331" x2="331" y2="80"/><line class="cls-1" x1="341" y1="11" x2="341" y2="69"/><line class="cls-1" x1="351" y1="16" x2="351" y2="64"/><line class="cls-1" x1="361" y1="5" x2="361" y2="75"/><line class="cls-1" x1="371" y1="16" x2="371" y2="64"/></svg>