<svg id="Ebene_1" data-name="Ebene 1" xmlns="http://www.w3.org/2000/svg" viewBox="0 0 142 142"><circle cx="71" cy="71" r="19"/><path d="M15.32,32.45A5,5,0,0,0,11,34.86,69.36,69.36,0,0,0,4.15,50.18h0L4,50.57H4c-.13.42-.25.84-.37,1.27h0c-.09.28-.16.57-.24.85h0l0,.18h0l0,.1h0l0,.11h0l0,.1h0l0,.08h0v0h0l0,.07h0v0h0v.05h0v0h0l0,.07h0v0h0l0,.07h0l0,.08h0v0h0l0,.08h0v0h0l0,.08h0v0h0l0,.08h0v.08H3l0,.1H3v0H3l0,.07H3v0H3l0,.06H3v0H3l0,.07H3v0h0l0,.08h0v0h0l0,.08h0v0h0v0h0v0h0l0,.07h0v0h0l0,.07h0v0h0v0h0v0h0v.07h0v0h0l0,.07h0v0h0l0,.08h0l0,.08h0v0h0v.07h0v0h0l0,.08h0v0h0l0,0h0v0h0l0,.07h0v0h0V56h0v0h0v.07h0v0h0v.05h0v0h0v.07h0v0h0l0,.07h0v0h0v.05h0v0h0l0,.08h0v0h0l0,.07h0v0h0v0h0v0h0v0h0v0h0v0h0V57h0v0h0v0h0v0h0v0h0v0h0v0h0v0h0v0h0v.08h0v.08h0v0h0v0h0v0h0v0h0v0h0v0h0v0h0l0,.07h0v0h0v0h0v.06h0v0h0v0h0v.07h0v0h0v0h0v0h0v0h0v0h0v0h0v0h0v.07h0l0,.06v0h0v0h0v0h0v0h0v0h0v.07h0v0h0v.07H2v0H2v0H2v0H2v0H2v0H2v0H2v.07H2v0H2v0H2v.06H2v0H2v0H2v.05h0v.1h0v.07h0v0h0v.07h0v0h0v.07h0v0h0V60h0v0h0v0h0v0h0v.1h0v0h0v0h0v0h0v.1h0v.1h0v.07h0v0h0v.07h0v0h0v0h0V61h0v0h0v.05h0v0h0v.07h0v.1h0v.1h0v0h0v0h0v.07h0v0h0v.07h0v.1h0v0h0v0h0V62h0v0h0v.07h0v0h0v0h0v0h0v.07h0v.1h0v.07h0v0h0v.07h0v.07h0v0h0v.07h0v.06h0v0h0V63h0v.06h0v0h0v.06h0v0h0v.07h0v.06h0v0h0v0h0v0h0v.07h0v.1h0v0h0v0h0v0h0v0h0v0h0v0h0v0h0v0h0v.07h0v.07h0v0h0v0h0v0h0v.14h0v0h0v.06h0v.07h0v0h0v0h0v0h0v0h0v0h0v.07h0v0h0v0h0v0h0v.06h0v.07h0v0h0v.06h0v0h0v0h0v0h0v0h0v0h0v.07h0v.07h0v0h0v0h0v0h0v.14h0v0h0V66h0V66h0v.07h0v.14h0v0h0v.06h0v0h0v0h0v0h0v0h0v0h0v0h0v0h0v.07h0v.06h0v0h0v0h0v0h0v0h0v0h0v0h0v0h0v0h0v0h0v0h0v0h0v0h0v0h0v0h0v0h0v0h0v0h0v0h0v0h0v0h0v.07h0v0h0v0h0v0h0v0h0v0h0v0h0v0h0v0h0v0h0v0h0v0h0v0h0v0h0v0h0v0h0v0h0v0h0v0h0v0h0v0h0v0h0v0H1v.06H1v.07H1v0H1v0H1v.07H1v.06H1v0H1v0H1V69H1v0H1v0H1v0H1v0H1v0H1v0H1v0H1v0H1v0H1v0H1v0H1v0H1v.07H1v0H1v0H1v0H1v0H1v0H1v0H1v0H1v0H1v0H1v0H1v0H1v0H1v0H1v0H1v0H1v0H1v0H1v0H1v0H1v0H1v0H1v0H1v0H1v0H1v0H1v0H1v0H1v.07H1v0H1v0H1v0H1v0H1v0H1v0H1v0H1v0H1v0H1v0H1v0H1v0H1v0H1v0H1v0H1v.11H1v0H1c0,.56,0,1.11,0,1.67a5,5,0,0,0,5,4.85h.15A5,5,0,0,0,11,72.75c0-.58,0-1.17,0-1.75a59.86,59.86,0,0,1,8.6-31,5,5,0,0,0-4.28-7.58ZM13.51,96.37a5,5,0,0,0-4.41,7.34,69.78,69.78,0,0,0,8.11,12.09h0l.05.06h0l0,.06h0l.05.06h0l.05.06h0l.05.06h0l0,0h0l0,0h0l0,.06h0l0,0h0l0,0h0l0,0h0l0,0h0l0,0h0l0,0h0l0,0h0l0,0h0l0,0h0l0,0h0l0,0h0l0,0h0l0,0h0l0,0h0l0,0h0l0,0h0l0,.06h0l0,.06h0l0,.06h0l.05.06h0l.05.05h0l0,0h0l0,0h0l0,0h0l0,0h0l0,0h0l0,0h0l0,0h0l0,0h0l0,0h0l0,0h0l0,0h0l0,0h0l0,0h0l0,0h0l0,0h0l0,0h0v0h0l0,0h0l0,0h0l0,0h0l0,0h0l0,0h0l0,0h0l0,0h0l0,0h0v0h0l0,0h0l0,0h0l0,0h0l0,0h0l0,0h0v0h0v0h0l0,0h0l0,0h0l0,0h0l0,0h0l0,0h0v0h0v0h0l0,0h0l0,0h0v0l0,0h0l0,0v0h0l.05.05h0v0h0v0h0v0h0v0l0,0h0l0,0h0v0h0l0,0h0l0,0h0l0,0h0l0,0h0l0,0h0l0,0h0l0,0h0v0h0l0,0h0l0,0h0v0h0l0,0h0v0h0l0,0h0v0h0l0,0h0l.05,0h0l0,0h0l.05,0h0l0,0h0l.05.06h0l0,0h0l0,0h0l.19.18h0l0,0h0L21,120h0l.22.22h0A69.86,69.86,0,0,0,36.63,132a4.9,4.9,0,0,0,2.44.65,5,5,0,0,0,2.47-9.36A60.1,60.1,0,0,1,17.93,99a5,5,0,0,0-4.42-2.66ZM103,122.58a5,5,0,0,0-2.46.65A60.09,60.09,0,0,1,71,131c-1.13,0-2.26,0-3.38-.09h-.28a5,5,0,0,0-.29,10c.71,0,1.43.07,2.14.09H80.53l.11,0h.25l.1,0h.25l.1,0h0l.11,0h0l.35-.05h0l.1,0h0l.13,0h0l.11,0h0l.1,0h0l.49-.08h0a69.67,69.67,0,0,0,22.7-8.08,5,5,0,0,0-2.47-9.35Zm33-54.81a5,5,0,0,0-5,4.87,59.74,59.74,0,0,1-10.4,32.16,5,5,0,1,0,8.25,5.65A69.62,69.62,0,0,0,136,97.06h0l.15-.39h0l0-.08h0v0h0l0-.08h0l0-.07h0l0-.08h0l0-.07h0v0h0l0-.07h0l0-.07h0l0-.07h0l0-.07h0v0h0v0h0v0h0l0-.07h0l0-.07h0v0h0l0,0h0v0h0v0h0v0h0v0h0v0h0l0-.07h0l0-.07h0v0h0l0,0h0v0h0v0h0v0h0v-.06h0v-.1h0v0h0v-.08h0v-.08h0v0h0v0h0V94.5h0v0h0v0h0v0h0V94.3h0v0h0v0h0v0h0v0h0v0h0v0h0V94h0v0h0v0h0v0h0v0h0v0h0v0h0v0h0v0h0v0h0v0h0v0h0v0h0v0h0v0h0v0h0v0h0v0h0v0h0v0h0v0h0v0h0v0h0v0h0v0h0v0h0v0h0v0h0v0h0v0h0v0h0v0h0v0h0v0h0v0h0v0h0v0h0v0h0v0h0v0h0v0h0l0-.07h0l0-.08h0l0-.07h0l0-.11h0l.15-.48h0A69.6,69.6,0,0,0,141,72.91a5,5,0,0,0-4.86-5.14ZM106.06,11.25a5,5,0,0,0-2.71,9.21A60.17,60.17,0,0,1,125.56,46a5,5,0,0,0,9.09-4.15,70,70,0,0,0-12.87-19h0l-.11-.11h0l0-.05h0l-.06-.06h0l0-.06h0l-.05-.05h0l0,0h0l-.05-.05h0l0-.05h0l-.05-.06h0v0h0l0,0h0l0,0h0l0,0h0l0,0h0l0,0h0l0,0h0l0,0h0l0,0h0l0,0h0l0,0h0l0,0h0v0h0l0,0h0l0,0h0v0h0l0,0h0l0,0h0v0h0l0,0h0l0,0h0l0,0h0v0h0l0,0h0l0,0h0l0,0h0l0,0h0l0,0h0l0,0h0l0,0h0l0,0h0l0,0h0l0,0h0l0,0h0l0,0h0l0,0h0l0,0h0l0,0h0l0,0h0l0,0h0l0,0h0l0,0h0l0,0h0l0,0h0l0,0h0l0,0h0l0,0h0l0,0h0l0,0h0l-.06-.06h0l-.05-.05h0l-.06-.05h0l-.11-.11h0A69.74,69.74,0,0,0,108.75,12a5,5,0,0,0-2.69-.79ZM71,1H60.83l-.19,0h-.08l-.08,0H60.2l-.19,0h-.16l-.19,0h0l-.08,0h0l-1,.16h0A69.07,69.07,0,0,0,48.14,4.82h0l-.25.08h0l-.07,0h0l0,0h0l-.07,0h0l-.07,0h0l-.25.09h0l-.07,0h0l-.07,0h-.11l-.06,0h0l-.07,0H46.8l0,0h0l-.06,0h0l-.06,0H46.4l-.07,0h0l-.06,0h-.44l0,0h-.14l0,0h-.27l0,0h-.72l0,0h0l0,0h0l0,0h0l0,0H44.2l0,0h0l0,0h0l0,0h0l-.06,0h0l-.07,0h0l0,0h0l-.14.06h0l-.06,0h0l-.07,0h0l-.17.07h0l-.25.11h0a70.45,70.45,0,0,0-10,5.33,5,5,0,0,0,5.42,8.41A59.72,59.72,0,0,1,71,11h0a63.18,63.18,0,0,1,6.75.37,3.52,3.52,0,0,0,.56,0,5,5,0,0,0,.55-10C76.92,1.22,75,1.08,73,1H71Z"/></svg>