<?xml version="1.0" encoding="utf-8"?>
<!-- Generator: Adobe Illustrator 26.5.0, SVG Export Plug-In . SVG Version: 6.00 Build 0)  -->
<svg version="1.1" id="Ebene_1" xmlns="http://www.w3.org/2000/svg" xmlns:xlink="http://www.w3.org/1999/xlink" x="0px" y="0px"
	 viewBox="0 0 264 175" style="enable-background:new 0 0 264 175;" xml:space="preserve">
<style type="text/css">
	.st0{fill:#969696;}
	.st1{fill:#595959;}
	.st2{fill:#12120D;}
</style>
<g>
	<g>
		<path d="M27.4,22.3c-0.3-0.2-0.7-0.3-1.1-0.3c-0.6-0.1-1.1,0.3-1.2,0.9c0,0.1,0,0.1,0,0.2c0,0.7,0.5,0.9,0.8,1.1l1,0.5
			c0.9,0.5,1.5,1,1.5,2c0,1.2-0.9,2.1-2.1,2.1c-0.1,0-0.2,0-0.3,0c-0.6,0-1.3-0.2-1.9-0.4c0-0.3-0.1-1-0.1-1.2
			c0-0.4,0.1-0.5,0.4-0.5c0.1,0,0.2,0,0.2,0.1l0.3,1.1c0.3,0.2,0.7,0.3,1.1,0.3c0.9,0,1.3-0.5,1.3-1.1c0-0.7-0.5-0.9-1.4-1.5
			l-0.7-0.4c-0.8-0.3-1.3-1.1-1.3-1.9c0-1.2,1-2,2.3-2c0.6,0,1.2,0.1,1.7,0.4c0,0,0,0.9,0,1c0,0.3-0.1,0.5-0.4,0.5
			c-0.1,0-0.2,0-0.2,0L27.4,22.3z"/>
		<path d="M34,28.2l0.8,0.1v0.1c0,0.2-0.1,0.3-0.4,0.3L33,28.8v-0.7l0,0c-0.4,0.5-0.9,0.8-1.6,0.8c-1.1,0-1.6-0.7-1.6-1.9v-2.7
			l-0.7-0.1v-0.1c0-0.2,0.1-0.3,0.4-0.3l1.4-0.1V27c0,1,0.5,1.2,1,1.2c0.4,0,0.9-0.2,1.1-0.5v-3.3l-0.7-0.1v-0.1
			c0-0.2,0.1-0.3,0.4-0.3l1.4-0.1L34,28.2z"/>
		<path d="M36.9,24.3L36.9,24.3c0.4-0.5,1-0.8,1.6-0.7c1.1,0,1.9,0.8,1.9,2.4c0.2,1.4-0.8,2.7-2.2,2.9c-0.2,0-0.3,0-0.5,0
			c-0.3,0-0.5,0-0.7-0.1v1.5l0.6,0.1c0.1,0,0.1,0.1,0.1,0.1c0,0.1,0,0.2-0.1,0.3h-2.4v-0.1c0-0.2,0.1-0.3,0.3-0.3l0.4-0.1v-6
			l-0.7-0.1v-0.1c0-0.2,0.1-0.3,0.4-0.3l1.4-0.1L36.9,24.3z M37,28c0.3,0.2,0.6,0.3,0.9,0.3c0.9,0,1.5-0.6,1.5-2.1
			c0-1.2-0.6-1.8-1.3-1.8c-0.4,0-0.8,0.1-1,0.4V28H37z"/>
		<path d="M42.8,24.3L42.8,24.3c0.4-0.5,1-0.8,1.6-0.7c1.1,0,1.9,0.8,1.9,2.4c0.2,1.4-0.8,2.7-2.2,2.9c-0.2,0-0.3,0-0.5,0
			c-0.3,0-0.5,0-0.7-0.1v1.5l0.6,0.1c0.1,0,0.1,0.1,0.1,0.1c0,0.1,0,0.2-0.1,0.3h-2.4v-0.1c0-0.2,0.1-0.3,0.3-0.3l0.4-0.1v-6
			l-0.7-0.1v-0.1c0-0.2,0.1-0.3,0.4-0.3l1.4-0.1L42.8,24.3z M42.9,28c0.3,0.2,0.6,0.3,0.9,0.3c0.9,0,1.5-0.6,1.5-2.1
			c0-1.2-0.6-1.8-1.3-1.8c-0.4,0-0.8,0.1-1,0.4L42.9,28z"/>
		<path d="M52.1,26.2c0.1,1.4-0.9,2.6-2.3,2.7c-0.1,0-0.2,0-0.2,0c-1.3,0-2.4-1-2.4-2.2c0-0.1,0-0.2,0-0.4c-0.1-1.4,1-2.6,2.4-2.7
			c0.1,0,0.1,0,0.2,0C51.1,23.6,52.1,24.4,52.1,26.2z M48.3,26.2c0,1.4,0.6,2,1.3,2s1.4-0.6,1.4-2s-0.6-2.1-1.4-2.1
			S48.3,24.8,48.3,26.2z"/>
		<path d="M54.5,24.5L54.5,24.5c0.3-0.4,0.6-1,1.3-1c0.5,0,0.7,0.2,0.7,0.6c0,0.2-0.1,0.4-0.2,0.5c-0.2-0.1-0.5-0.2-0.7-0.2
			c-0.4,0-0.9,0.2-1.1,0.5v3.2l0.8,0.1c0.1,0,0.1,0.1,0.1,0.1c0,0.1,0,0.2-0.1,0.3h-2.5v-0.1c0-0.2,0.1-0.3,0.3-0.3l0.4-0.1v-3.9
			l-0.7-0.1V24c0-0.2,0.1-0.3,0.4-0.3l1.4-0.1L54.5,24.5z"/>
		<path d="M60.1,24.3h-1.4v3.1c0,0.5,0.1,0.9,0.7,0.9c0.3,0,0.6-0.1,0.8-0.3c0.1,0.1,0.1,0.2,0.1,0.3c0,0.1-0.4,0.6-1.3,0.6
			c-0.7,0.1-1.3-0.4-1.3-1.1c0-0.1,0-0.2,0-0.3v-3.3h-0.8v-0.1c0-0.2,0.1-0.3,0.3-0.4l0.5-0.1l0.2-1.4h0.8v1.4h1.6L60.1,24.3z"/>
		<path d="M61.9,26.2c0,1.3,0.6,1.9,1.5,1.9c0.5,0,1-0.2,1.3-0.5c0.1,0.1,0.2,0.2,0.2,0.4c0,0.3-0.7,0.9-1.9,0.9
			c-1.3,0-2.3-0.7-2.3-2.6s1.1-2.8,2.3-2.8c0.9-0.1,1.7,0.6,1.8,1.5c0,0.1,0,0.2,0,0.3c0,0.3,0,0.6-0.1,0.9
			C64.7,26.2,61.9,26.2,61.9,26.2z M63.7,25.7c0-0.1,0.1-0.3,0.1-0.5c0-0.6-0.2-1.1-0.8-1.1s-1,0.5-1.1,1.5L63.7,25.7z"/>
		<path d="M70.3,28.2l0.8,0.1v0.1c0,0.2-0.1,0.3-0.4,0.3l-1.4,0.1v-0.7l0,0c-0.3,0.5-0.9,0.8-1.5,0.7c-1,0-2-0.7-2-2.5
			c-0.1-1.4,1-2.7,2.4-2.8c0.1,0,0.2,0,0.3,0c0.3,0,0.5,0,0.7,0.1v-1.8l-0.7-0.1v-0.1c0-0.2,0.1-0.3,0.4-0.3l1.4-0.1L70.3,28.2z
			 M69.2,24.5c-0.2-0.2-0.6-0.3-0.9-0.3c-0.9,0-1.5,0.6-1.5,2s0.6,1.9,1.3,1.9c0.4,0,0.8-0.1,1.1-0.4V24.5z"/>
		<path d="M75.2,24.3L75.2,24.3c0.4-0.5,1-0.7,1.6-0.7c1,0,1.9,0.7,1.9,2.5c0.1,1.4-0.9,2.7-2.4,2.8c-0.1,0-0.3,0-0.4,0
			c-0.6,0-1.2-0.1-1.8-0.4v-6.7l-0.7-0.1v-0.1c0-0.2,0.1-0.3,0.4-0.3l1.4-0.1V24.3z M75.2,28c0.3,0.2,0.6,0.3,0.9,0.3
			c0.9,0,1.5-0.6,1.5-2s-0.7-1.8-1.4-1.8c-0.4,0-0.8,0.1-1,0.4V28z"/>
		<path d="M84,24.2l-1.7,4.6C81.6,30.4,80.9,31,80,31c-0.5,0-0.7-0.2-0.7-0.6c0-0.2,0-0.3,0.1-0.4c0.2,0.1,0.3,0.1,0.5,0.1
			c0.7,0,1.3-0.4,1.6-1.1l-2-4.7L79,24v-0.1c0-0.1,0.1-0.3,0.3-0.3l0,0h2c0.1,0,0.1,0,0.1,0.1s0,0.2-0.1,0.3l-0.6,0.2l1.2,3.4l0,0
			l1.2-3.4L82.4,24v-0.1c0-0.1,0.1-0.3,0.3-0.3l0,0h1.7c0.1,0,0.1,0,0.1,0.1s0,0.2-0.1,0.3L84,24.2z"/>
		<path d="M85.8,24.9c-0.4,0-0.6-0.3-0.7-0.6c0-0.4,0.3-0.6,0.6-0.7l0,0c0.4,0,0.7,0.3,0.7,0.6S86.1,24.8,85.8,24.9L85.8,24.9z
			 M85.8,28.9c-0.4,0-0.6-0.3-0.7-0.6c0-0.4,0.3-0.6,0.6-0.7l0,0c0.4,0,0.7,0.3,0.7,0.6S86.1,28.9,85.8,28.9L85.8,28.9z"/>
	</g>
	<g>
		<path d="M25,136.3L25,136.3c0.4-0.5,1-0.7,1.6-0.7c1,0,1.9,0.7,1.9,2.5c0.1,1.4-0.9,2.7-2.4,2.8c-0.1,0-0.3,0-0.4,0
			c-0.6,0-1.2-0.1-1.8-0.4v-6.7l-0.7-0.1v-0.1c0-0.2,0.1-0.3,0.4-0.3l1.4-0.1V136.3z M25,140c0.3,0.2,0.6,0.3,0.9,0.3
			c0.9,0,1.5-0.6,1.5-2s-0.7-1.8-1.4-1.8c-0.4,0-0.8,0.1-1,0.4V140z"/>
		<path d="M33,139.7c0,0.4,0.2,0.5,0.3,0.5c0.2,0,0.3-0.1,0.4-0.2c0.1,0.1,0.1,0.2,0.1,0.3s-0.3,0.5-1,0.5c-0.4,0-0.8-0.3-0.9-0.7
			l0,0l0,0c-0.3,0.5-0.8,0.8-1.4,0.8c-0.7,0-1.3-0.5-1.4-1.2v-0.1c0-1.1,1.2-1.5,2.4-1.5H32v-0.5c0-1-0.3-1.3-0.9-1.3
			c-0.2,0-0.4,0-0.5,0.1c-0.1,0.3-0.2,0.6-0.2,0.9h-0.2c-0.4,0-0.6-0.2-0.6-0.5c0-0.7,0.9-1.1,1.8-1.1c1.2,0,1.7,0.6,1.7,1.8
			L33,139.7z M31.7,138.6c-0.9,0-1.3,0.3-1.3,0.9c0,0.4,0.2,0.7,0.6,0.7h0.1c0.3,0,0.7-0.2,0.9-0.5v-1.2L31.7,138.6z"/>
		<path d="M36.7,136.4c-0.2-0.1-0.4-0.2-0.7-0.2s-0.7,0.1-0.7,0.6s0.5,0.7,1,1c0.6,0.4,1.3,0.8,1.3,1.6c0,0.9-0.7,1.5-1.9,1.5
			c-0.5,0-0.9-0.1-1.3-0.3c0-0.3-0.1-0.5-0.1-0.8c0-0.4,0.1-0.6,0.4-0.6c0.1,0,0.1,0,0.1,0l0.2,0.9c0.2,0.1,0.5,0.2,0.7,0.2
			c0.5,0,0.8-0.2,0.8-0.6c0-0.5-0.5-0.7-1-1c-0.6-0.4-1.3-0.8-1.3-1.7c0-0.8,0.7-1.4,1.7-1.4c0.4,0,0.9,0.1,1.2,0.4
			c0,0.2,0,0.4,0,0.6c0,0.4-0.1,0.6-0.5,0.6h-0.1L36.7,136.4z"/>
		<path d="M39.6,138.3c0,1.3,0.6,1.9,1.5,1.9c0.5,0,1-0.2,1.3-0.5c0.1,0.1,0.2,0.2,0.2,0.4c0,0.3-0.7,0.9-1.9,0.9
			c-1.3,0-2.3-0.7-2.3-2.6c0-1.8,1.1-2.8,2.3-2.8c0.9-0.1,1.7,0.6,1.8,1.5c0,0.1,0,0.2,0,0.3c0,0.3,0,0.6-0.1,0.9L39.6,138.3
			L39.6,138.3z M41.4,137.7c0-0.1,0.1-0.3,0.1-0.5c0-0.6-0.2-1.1-0.8-1.1s-1,0.5-1.1,1.5h1.8V137.7z"/>
		<path d="M48,140.2l0.8,0.1v0.1c0,0.2-0.1,0.3-0.4,0.3l-1.4,0.1v-0.7l0,0c-0.3,0.5-0.9,0.8-1.5,0.7c-1,0-2-0.7-2-2.5
			c-0.1-1.4,1-2.7,2.4-2.8c0.1,0,0.2,0,0.3,0c0.3,0,0.5,0,0.7,0.1v-1.8l-0.7-0.1v-0.1c0-0.2,0.1-0.3,0.4-0.3l1.4-0.1V140.2z
			 M46.9,136.6c-0.2-0.2-0.6-0.3-0.9-0.3c-0.9,0-1.5,0.6-1.5,2s0.6,1.9,1.3,1.9c0.4,0,0.8-0.1,1.1-0.4L46.9,136.6z"/>
		<path d="M56.4,138.2c0.1,1.4-0.9,2.6-2.3,2.7c-0.1,0-0.2,0-0.2,0c-1.3,0-2.4-1-2.4-2.2c0-0.1,0-0.2,0-0.4c-0.1-1.4,1-2.6,2.4-2.7
			c0.1,0,0.1,0,0.2,0C55.4,135.6,56.4,136.4,56.4,138.2z M52.6,138.3c0,1.4,0.6,2,1.3,2s1.4-0.6,1.4-2s-0.6-2.1-1.4-2.1
			S52.6,136.9,52.6,138.3L52.6,138.3z"/>
		<path d="M62.2,140.3l0.6,0.1c0.1,0,0.1,0.1,0.1,0.1c0,0.1,0,0.2-0.1,0.3h-2.4v-0.1c0-0.2,0.1-0.3,0.3-0.3l0.3-0.1v-2.7
			c0-0.9-0.5-1.2-1-1.2c-0.4,0-0.9,0.2-1.2,0.5v3.4l0.6,0.1c0.1,0,0.1,0.1,0.1,0.1c0,0.1,0,0.2-0.1,0.3H57v-0.1
			c0-0.2,0.1-0.3,0.3-0.3l0.4-0.1v-3.9l-0.7-0.1v-0.1c0-0.2,0.1-0.3,0.4-0.3l1.4-0.1l-0.1,0.7l0,0c0.4-0.5,1.1-0.8,1.7-0.8
			c1,0,1.6,0.7,1.6,1.8L62.2,140.3z"/>
		<path d="M69.4,139.7c0,0.4,0.2,0.5,0.3,0.5c0.2,0,0.3-0.1,0.4-0.2c0.1,0.1,0.1,0.2,0.1,0.3s-0.3,0.5-1,0.5c-0.4,0-0.8-0.3-0.9-0.7
			l0,0l0,0c-0.3,0.5-0.8,0.8-1.4,0.8c-0.7,0-1.3-0.5-1.4-1.2v-0.1c0-1.1,1.2-1.5,2.4-1.5h0.3v-0.5c0-1-0.3-1.3-0.9-1.3
			c-0.2,0-0.4,0-0.5,0.1c-0.1,0.3-0.2,0.6-0.2,0.9h-0.2c-0.4,0-0.6-0.2-0.6-0.5c0-0.7,0.9-1.1,1.8-1.1c1.2,0,1.7,0.6,1.7,1.8
			L69.4,139.7z M68.1,138.6c-0.9,0-1.3,0.3-1.3,0.9c0,0.4,0.2,0.7,0.6,0.7h0.1c0.3,0,0.7-0.2,0.9-0.5v-1.2L68.1,138.6z"/>
		<path d="M77.4,140.2l0.8,0.1v0.1c0,0.2-0.1,0.3-0.4,0.3l-1.4,0.1v-0.7l0,0c-0.3,0.5-0.9,0.8-1.5,0.7c-1,0-2-0.7-2-2.5
			c-0.1-1.4,1-2.7,2.4-2.8c0.1,0,0.2,0,0.3,0c0.3,0,0.5,0,0.7,0.1v-1.8l-0.7-0.1v-0.1c0-0.2,0.1-0.3,0.4-0.3l1.4-0.1L77.4,140.2z
			 M76.3,136.6c-0.2-0.2-0.6-0.3-0.9-0.3c-0.9,0-1.5,0.6-1.5,2s0.6,1.9,1.3,1.9c0.4,0,0.8-0.1,1.1-0.4V136.6z"/>
		<path d="M79.9,138.3c0,1.3,0.6,1.9,1.5,1.9c0.5,0,1-0.2,1.3-0.5c0.1,0.1,0.2,0.2,0.2,0.4c0,0.3-0.7,0.9-1.9,0.9
			c-1.3,0-2.3-0.7-2.3-2.6c0-1.8,1.1-2.8,2.3-2.8c0.9-0.1,1.7,0.6,1.8,1.5c0,0.1,0,0.2,0,0.3c0,0.3,0,0.6-0.1,0.9L79.9,138.3
			L79.9,138.3z M81.7,137.7c0-0.1,0.1-0.3,0.1-0.5c0-0.6-0.2-1.1-0.8-1.1c-0.6,0-1,0.5-1.1,1.5h1.8V137.7z"/>
		<path d="M86.2,136.3c-0.7,0-1.3,0.5-1.3,1.9c0,1.3,0.5,2.1,1.5,2.1c0.5,0,0.9-0.2,1.2-0.5c0.1,0.1,0.2,0.2,0.2,0.4
			c0,0.3-0.6,0.9-1.7,0.9c-1.4,0-2.2-0.9-2.2-2.6c-0.1-1.4,0.9-2.6,2.3-2.7c0.1,0,0.2,0,0.3,0c1.2,0,1.4,0.6,1.4,0.9
			c0,0.3-0.2,0.6-0.5,0.6C87.1,136.6,86.7,136.3,86.2,136.3z"/>
		<path d="M90.2,140.3l0.6,0.1c0.1,0,0.1,0.1,0.1,0.1c0,0.1,0,0.2-0.1,0.3h-2.4v-0.1c0-0.2,0.1-0.3,0.3-0.3l0.4-0.1v-3.9l-0.7-0.1
			v-0.1c0-0.2,0.1-0.3,0.4-0.3l1.4-0.1L90.2,140.3z M89.6,134.6c-0.4,0-0.7-0.3-0.7-0.7s0.3-0.7,0.7-0.7l0,0c0.4,0,0.7,0.3,0.7,0.7
			C90.3,134.3,90,134.6,89.6,134.6C89.7,134.6,89.6,134.6,89.6,134.6z"/>
		<path d="M94,136.4c-0.2-0.1-0.4-0.2-0.7-0.2c-0.3,0-0.7,0.1-0.7,0.6s0.5,0.7,1,1c0.6,0.4,1.3,0.8,1.3,1.6c0,0.9-0.7,1.5-1.9,1.5
			c-0.5,0-0.9-0.1-1.3-0.3c0-0.3-0.1-0.5-0.1-0.8c0-0.4,0.1-0.6,0.4-0.6c0.1,0,0.1,0,0.1,0l0.2,0.9c0.2,0.1,0.5,0.2,0.7,0.2
			c0.5,0,0.8-0.2,0.8-0.6c0-0.5-0.5-0.7-1-1c-0.6-0.4-1.3-0.8-1.3-1.7c0-0.8,0.7-1.4,1.7-1.4c0.4,0,0.9,0.1,1.2,0.4
			c0,0.2,0,0.4,0,0.6c0,0.4-0.1,0.6-0.5,0.6h-0.1L94,136.4z"/>
		<path d="M97.3,140.3l0.6,0.1c0.1,0,0.1,0.1,0.1,0.1c0,0.1,0,0.2-0.1,0.3h-2.4v-0.1c0-0.2,0.1-0.3,0.3-0.3l0.4-0.1v-3.9l-0.7-0.1
			v-0.1c0-0.2,0.1-0.3,0.4-0.3l1.4-0.1L97.3,140.3z M96.8,134.6c-0.4,0-0.7-0.3-0.7-0.7s0.3-0.7,0.7-0.7l0,0c0.4,0,0.7,0.3,0.7,0.7
			S97.2,134.6,96.8,134.6L96.8,134.6z"/>
		<path d="M103.6,138.2c0.1,1.4-0.9,2.6-2.3,2.7c-0.1,0-0.2,0-0.2,0c-1.3,0-2.4-1-2.4-2.2c0-0.1,0-0.2,0-0.4c-0.1-1.4,1-2.6,2.4-2.7
			c0.1,0,0.1,0,0.2,0C102.6,135.6,103.6,136.4,103.6,138.2z M99.8,138.3c0,1.4,0.6,2,1.3,2c0.8,0,1.4-0.6,1.4-2s-0.6-2.1-1.4-2.1
			C100.4,136.2,99.8,136.9,99.8,138.3L99.8,138.3z"/>
		<path d="M109.4,140.3l0.6,0.1c0.1,0,0.1,0.1,0.1,0.1c0,0.1,0,0.2-0.1,0.3h-2.4v-0.1c0-0.2,0.1-0.3,0.3-0.3l0.3-0.1v-2.7
			c0-0.9-0.5-1.2-1-1.2c-0.4,0-0.9,0.2-1.2,0.5v3.4l0.6,0.1c0.1,0,0.1,0.1,0.1,0.1c0,0.1,0,0.2-0.1,0.3h-2.4v-0.1
			c0-0.2,0.1-0.3,0.3-0.3l0.4-0.1v-3.9l-0.7-0.1v-0.1c0-0.2,0.1-0.3,0.4-0.3l1.4-0.1l-0.1,0.7l0,0c0.4-0.5,1.1-0.8,1.7-0.8
			c1,0,1.6,0.7,1.6,1.8L109.4,140.3z"/>
		<path d="M117.8,138.2c0.1,1.4-0.9,2.6-2.3,2.7c-0.1,0-0.2,0-0.2,0c-1.3,0-2.4-1-2.4-2.2c0-0.1,0-0.2,0-0.4c-0.1-1.4,1-2.6,2.4-2.7
			c0.1,0,0.1,0,0.2,0C116.8,135.6,117.8,136.4,117.8,138.2z M114,138.3c0,1.4,0.6,2,1.3,2c0.8,0,1.4-0.6,1.4-2s-0.6-2.1-1.4-2.1
			C114.6,136.2,114,136.9,114,138.3L114,138.3z"/>
		<path d="M121.6,136.3h-1.3v3.9l0.7,0.1c0.1,0,0.1,0.1,0.1,0.1c0,0.1,0,0.2-0.1,0.3h-2.5v-0.1c0-0.2,0.1-0.3,0.3-0.3l0.4-0.1v-3.9
			h-0.8v-0.1c0-0.2,0.1-0.3,0.3-0.4l0.5-0.1v-0.1c0-1.7,1-2.5,1.9-2.5c0.5,0,0.7,0.2,0.7,0.6c0,0.2-0.1,0.4-0.3,0.5
			c-0.2-0.2-0.4-0.3-0.7-0.3c-0.5,0-0.6,0.3-0.6,0.9c0,0.3,0,1,0,1h1.4V136.3z"/>
		<path d="M26.7,148.3h-1.4v3.1c0,0.5,0.1,0.9,0.7,0.9c0.3,0,0.6-0.1,0.8-0.3c0.1,0.1,0.1,0.2,0.1,0.3s-0.4,0.6-1.3,0.6
			c-0.7,0.1-1.3-0.4-1.3-1.1c0-0.1,0-0.2,0-0.3v-3.3h-0.8v-0.1c0-0.2,0.1-0.3,0.3-0.4l0.5-0.1l0.2-1.4h0.8v1.4h1.6L26.7,148.3z"/>
		<path d="M28.9,148.4L28.9,148.4c0.4-0.5,1-0.8,1.6-0.8c1,0,1.6,0.6,1.6,1.8v2.8l0.6,0.1c0.1,0,0.1,0.1,0.1,0.1
			c0,0.1,0,0.2-0.1,0.3h-2.4v-0.1c0-0.2,0.1-0.3,0.3-0.3l0.3-0.1v-2.7c0-0.9-0.5-1.2-1-1.2c-0.4,0-0.9,0.2-1.2,0.5v3.3l0.6,0.1
			c0.1,0,0.1,0.1,0.1,0.1c0,0.1,0,0.2-0.1,0.3h-2.4v-0.1c0-0.2,0.1-0.3,0.3-0.3l0.4-0.1v-6.4l-0.7-0.1v-0.1c0-0.2,0.1-0.3,0.4-0.3
			l1.4-0.1v3.3H28.9z"/>
		<path d="M34.6,150.3c0,1.3,0.6,1.9,1.5,1.9c0.5,0,1-0.2,1.3-0.5c0.1,0.1,0.2,0.2,0.2,0.4c0,0.3-0.7,0.9-1.9,0.9
			c-1.3,0-2.3-0.7-2.3-2.6c0-1.8,1.1-2.8,2.3-2.8c0.9-0.1,1.7,0.6,1.8,1.5c0,0.1,0,0.2,0,0.3c0,0.3,0,0.6-0.1,0.9L34.6,150.3
			L34.6,150.3z M36.4,149.7c0-0.1,0.1-0.3,0.1-0.5c0-0.6-0.2-1.1-0.8-1.1s-1,0.5-1.1,1.5h1.8V149.7z"/>
		<path d="M45.7,146.4c-0.4-0.2-0.8-0.3-1.3-0.3c-1.3,0-2.5,0.8-2.5,3c0,2.1,1,3.1,2.4,3.1c0.4,0,0.8-0.1,1.2-0.2v-2l-0.6-0.1
			c-0.1,0-0.1-0.1-0.1-0.1c0-0.1,0.1-0.2,0.1-0.3h2.4v0.1c0,0.2-0.1,0.3-0.4,0.4l-0.2,0.1v2.2c-0.7,0.6-1.7,0.9-2.6,0.8
			c-1.8,0-3.3-1.1-3.3-3.7c-0.1-2,1.4-3.7,3.4-3.8c0.1,0,0.3,0,0.4,0c0.7,0,1.4,0.1,2,0.5c0,0.3,0.1,1,0.1,1c0,0.3-0.1,0.5-0.4,0.5
			c-0.1,0-0.2,0-0.2,0L45.7,146.4z"/>
		<path d="M49,150.3c0,1.3,0.6,1.9,1.5,1.9c0.5,0,1-0.2,1.3-0.5c0.1,0.1,0.2,0.2,0.2,0.4c0,0.3-0.7,0.9-1.9,0.9
			c-1.3,0-2.3-0.7-2.3-2.6c0-1.8,1.1-2.8,2.3-2.8c0.9-0.1,1.7,0.6,1.8,1.5c0,0.1,0,0.2,0,0.3c0,0.3,0,0.6-0.1,0.9L49,150.3L49,150.3
			z M50.8,149.7c0-0.1,0.1-0.3,0.1-0.5c0-0.6-0.2-1.1-0.8-1.1s-1,0.5-1.1,1.5h1.8V149.7z"/>
		<path d="M54.4,148.6L54.4,148.6c0.3-0.4,0.6-1,1.3-1c0.5,0,0.7,0.2,0.7,0.6c0,0.2-0.1,0.4-0.2,0.5c-0.2-0.1-0.5-0.2-0.7-0.2
			c-0.4,0-0.9,0.2-1.1,0.5v3.2l0.8,0.1c0.1,0,0.1,0.1,0.1,0.1c0,0.1,0,0.2-0.1,0.3h-2.5v-0.1c0-0.2,0.1-0.3,0.3-0.3l0.4-0.1v-3.9
			l-0.7-0.1v-0.1c0-0.2,0.1-0.3,0.4-0.3l1.4-0.1L54.4,148.6z"/>
		<path d="M65,152.3l0.6,0.1c0.1,0,0.1,0.1,0.1,0.1c0,0.1,0,0.2-0.1,0.3h-2.4v-0.1c0-0.2,0.1-0.3,0.3-0.3l0.3-0.1v-2.7
			c0-0.9-0.5-1.2-0.9-1.2c-0.5,0-0.9,0.2-1.2,0.5c0,0.2,0.1,0.4,0.1,0.5v2.8l0.6,0.1c0.1,0,0.1,0.1,0.1,0.1c0,0.1,0,0.2-0.1,0.3H60
			v-0.1c0-0.2,0.1-0.3,0.3-0.3l0.3-0.1v-2.7c0-0.9-0.4-1.2-0.9-1.2c-0.4,0-0.9,0.2-1.2,0.4v3.4l0.6,0.1c0.1,0,0.1,0.1,0.1,0.1
			c0,0.1,0,0.2-0.1,0.3h-2.4v-0.1c0-0.2,0.1-0.3,0.3-0.3l0.4-0.1v-3.9l-0.7-0.1V148c0-0.2,0.1-0.3,0.4-0.3l1.4-0.1l-0.1,0.7l0,0
			c0.4-0.5,1-0.8,1.7-0.7c0.6,0,1.1,0.3,1.4,0.9c0.4-0.5,1.1-0.8,1.8-0.9c1,0,1.6,0.6,1.6,1.8L65,152.3z"/>
		<path d="M70,151.7c0,0.4,0.2,0.5,0.3,0.5c0.2,0,0.3-0.1,0.4-0.2c0.1,0.1,0.1,0.2,0.1,0.3s-0.3,0.5-1,0.5c-0.4,0-0.8-0.3-0.9-0.7
			l0,0l0,0c-0.3,0.5-0.8,0.8-1.4,0.8c-0.7,0-1.3-0.5-1.4-1.2v-0.1c0-1.1,1.2-1.5,2.4-1.5H69v-0.5c0-1-0.3-1.3-0.9-1.3
			c-0.2,0-0.4,0-0.5,0.1c-0.1,0.3-0.2,0.6-0.2,0.9h-0.2c-0.4,0-0.6-0.2-0.6-0.5c0-0.7,0.9-1.1,1.8-1.1c1.2,0,1.7,0.6,1.7,1.8
			L70,151.7z M68.7,150.6c-0.9,0-1.3,0.3-1.3,0.9c0,0.4,0.2,0.7,0.6,0.7h0.1c0.3,0,0.7-0.2,0.9-0.5v-1.2L68.7,150.6z"/>
		<path d="M76.3,152.3l0.6,0.1c0.1,0,0.1,0.1,0.1,0.1c0,0.1,0,0.2-0.1,0.3h-2.4v-0.1c0-0.2,0.1-0.3,0.3-0.3l0.3-0.1v-2.7
			c0-0.9-0.5-1.2-1-1.2c-0.4,0-0.9,0.2-1.2,0.5v3.4l0.6,0.1c0.1,0,0.1,0.1,0.1,0.1c0,0.1,0,0.2-0.1,0.3h-2.4v-0.1
			c0-0.2,0.1-0.3,0.3-0.3l0.4-0.1v-3.9l-0.7-0.1v-0.1c0-0.2,0.1-0.3,0.4-0.3l1.4-0.1l-0.1,0.7l0,0c0.4-0.5,1.1-0.8,1.7-0.8
			c1,0,1.6,0.7,1.6,1.8v2.8L76.3,152.3L76.3,152.3z"/>
		<path d="M83.6,149.1L83.6,149.1c1,0.2,1.7,0.8,1.7,1.7c0,1.2-1,2-2.9,2h-2.7v-0.1c0-0.2,0.1-0.3,0.4-0.4l0.4-0.1v-6.1l-0.6-0.1
			c-0.1,0-0.1-0.1-0.1-0.1c0-0.1,0.1-0.2,0.1-0.3h2.5c1.9,0,2.8,0.7,2.8,1.8C85.2,148.3,84.5,149,83.6,149.1z M82.3,146.2h-0.6v2.6
			h0.6c1.2,0,1.7-0.6,1.7-1.3C84,146.7,83.4,146.2,82.3,146.2z M82.4,149.5h-0.7v2.7h0.6c1.2,0,1.8-0.6,1.8-1.4
			C84.1,150,83.5,149.5,82.4,149.5L82.4,149.5z"/>
		<path d="M91,152.2l0.8,0.1v0.1c0,0.2-0.1,0.3-0.4,0.3l-1.4,0.1v-0.7l0,0c-0.4,0.5-0.9,0.8-1.6,0.8c-1.1,0-1.6-0.7-1.6-1.9v-2.7
			l-0.7-0.1v-0.1c0-0.2,0.1-0.3,0.4-0.3l1.4-0.1v3.3c0,1,0.5,1.2,1,1.2c0.4,0,0.9-0.2,1.1-0.5v-3.3l-0.7-0.1v-0.1
			c0-0.2,0.1-0.3,0.4-0.3l1.4-0.1v4.4L91,152.2L91,152.2z"/>
		<path d="M97.3,152.3l0.6,0.1c0.1,0,0.1,0.1,0.1,0.1c0,0.1,0,0.2-0.1,0.3h-2.4v-0.1c0-0.2,0.1-0.3,0.3-0.3l0.3-0.1v-2.7
			c0-0.9-0.5-1.2-1-1.2c-0.4,0-0.9,0.2-1.2,0.5v3.4l0.6,0.1c0.1,0,0.1,0.1,0.1,0.1c0,0.1,0,0.2-0.1,0.3h-2.4v-0.1
			c0-0.2,0.1-0.3,0.3-0.3l0.4-0.1v-3.9l-0.7-0.1v-0.1c0-0.2,0.1-0.3,0.4-0.3l1.4-0.1l-0.1,0.7l0,0c0.4-0.5,1.1-0.8,1.7-0.8
			c1,0,1.6,0.7,1.6,1.8L97.3,152.3z"/>
		<path d="M103.1,152.2l0.8,0.1v0.1c0,0.2-0.1,0.3-0.4,0.3l-1.4,0.1v-0.7l0,0c-0.3,0.5-0.9,0.8-1.5,0.7c-1,0-2-0.7-2-2.5
			c-0.1-1.4,1-2.7,2.4-2.8c0.1,0,0.2,0,0.3,0c0.3,0,0.5,0,0.7,0.1v-1.8l-0.7-0.1v-0.1c0-0.2,0.1-0.3,0.4-0.3l1.4-0.1L103.1,152.2z
			 M102,148.6c-0.2-0.2-0.6-0.3-0.9-0.3c-0.9,0-1.5,0.6-1.5,2s0.6,1.9,1.3,1.9c0.4,0,0.8-0.1,1.1-0.4V148.6z"/>
		<path d="M105.6,150.3c0,1.3,0.6,1.9,1.5,1.9c0.5,0,1-0.2,1.3-0.5c0.1,0.1,0.2,0.2,0.2,0.4c0,0.3-0.7,0.9-1.9,0.9
			c-1.3,0-2.3-0.7-2.3-2.6c0-1.8,1.1-2.8,2.3-2.8c0.9-0.1,1.7,0.6,1.8,1.5c0,0.1,0,0.2,0,0.3c0,0.3,0,0.6-0.1,0.9L105.6,150.3
			L105.6,150.3z M107.4,149.7c0-0.1,0-0.3,0.1-0.5c0-0.6-0.2-1.1-0.8-1.1c-0.6,0-1,0.5-1.1,1.5h1.8V149.7z"/>
		<path d="M111.8,148.4c-0.2-0.1-0.4-0.2-0.7-0.2c-0.3,0-0.7,0.1-0.7,0.6s0.5,0.7,1,1c0.6,0.4,1.3,0.8,1.3,1.6
			c0,0.9-0.7,1.5-1.9,1.5c-0.5,0-0.9-0.1-1.3-0.3c0-0.3-0.1-0.5-0.1-0.8c0-0.4,0.1-0.6,0.4-0.6c0.1,0,0.1,0,0.1,0l0.2,0.9
			c0.2,0.1,0.5,0.2,0.7,0.2c0.5,0,0.8-0.2,0.8-0.6c0-0.5-0.5-0.7-1-1c-0.6-0.4-1.3-0.8-1.3-1.7c0-0.8,0.7-1.4,1.7-1.4
			c0.4,0,0.9,0.1,1.2,0.4c0,0.2,0,0.4,0,0.6c0,0.4-0.1,0.6-0.5,0.6h-0.1L111.8,148.4z"/>
		<path d="M116.6,148.3h-1.4v3.1c0,0.5,0.1,0.9,0.7,0.9c0.3,0,0.6-0.1,0.8-0.3c0.1,0.1,0.1,0.2,0.1,0.3s-0.4,0.6-1.3,0.6
			c-0.7,0.1-1.3-0.4-1.3-1.1c0-0.1,0-0.2,0-0.3v-3.3h-0.8v-0.1c0-0.2,0.1-0.3,0.3-0.4l0.5-0.1l0.2-1.4h0.8v1.4h1.6L116.6,148.3z"/>
		<path d="M120.9,151.7c0,0.4,0.2,0.5,0.3,0.5c0.2,0,0.3-0.1,0.4-0.2c0.1,0.1,0.1,0.2,0.1,0.3s-0.3,0.5-1,0.5
			c-0.4,0-0.8-0.3-0.9-0.7l0,0l0,0c-0.3,0.5-0.8,0.8-1.4,0.8c-0.7,0-1.3-0.5-1.4-1.2v-0.1c0-1.1,1.2-1.5,2.4-1.5h0.3v-0.5
			c0-1-0.3-1.3-0.9-1.3c-0.2,0-0.4,0-0.5,0.1c-0.1,0.3-0.2,0.6-0.2,0.9h-0.2c-0.4,0-0.6-0.2-0.6-0.5c0-0.7,0.9-1.1,1.8-1.1
			c1.2,0,1.7,0.6,1.7,1.8L120.9,151.7z M119.6,150.6c-0.8,0-1.3,0.3-1.3,0.9c0,0.4,0.2,0.7,0.6,0.7h0.1c0.3,0,0.7-0.2,0.9-0.5v-1.2
			L119.6,150.6z"/>
		<path d="M126.9,148.4H126c0.2,0.3,0.3,0.6,0.3,1c0,1-0.9,1.8-1.9,1.8c-0.1,0-0.1,0-0.2,0c-0.2,0-0.3,0-0.5-0.1
			c-0.2,0.1-0.3,0.3-0.3,0.5c0,0.3,0.2,0.4,0.5,0.4h1.2c1,0,1.5,0.4,1.5,1.2c0,1-1,2-2.8,2c-1.3,0-1.9-0.5-1.9-1.2
			c0-0.6,0.4-1.1,1-1.2l0,0c-0.3-0.1-0.4-0.4-0.4-0.7c0-0.4,0.3-0.8,0.8-1l0,0c-0.6-0.3-1-0.9-1-1.6c0-1.1,0.9-1.7,2-1.7
			c0.3,0,0.6,0,0.8,0.1h1.8V148.4z M123.9,152.8c-0.1,0-0.3,0-0.4,0c-0.3,0.2-0.5,0.5-0.5,0.8c0,0.5,0.3,0.9,1.1,0.9
			c1,0,1.6-0.5,1.6-1c0-0.4-0.2-0.6-0.8-0.6L123.9,152.8z M123.4,149.3c0,0.8,0.4,1.2,0.9,1.2c0.6,0,1-0.3,1-1.2
			c0-0.7-0.4-1.1-1-1.1S123.4,148.5,123.4,149.3z"/>
	</g>
</g>
<g>
	<path d="M43.4,58.5c0.5,1.2,1.8,1.8,3,1.6c-0.8-0.6-1.5-1.4-2-2.3l-1.9-3c-0.2-0.9-0.7-1.8-1.4-2.4c0.2-0.1,0.4-0.2,0.6-0.3
		c-1.2,0-2.4-0.6-3.1-0.6c-0.3,0-0.7,0.2-0.7,0.5c0,0,0,0,0,0.1c0,0.4,0.4,0.8,1.1,0.8c0.2,0,0.4,0,0.6-0.1c0.4,0.5,0.7,1.1,0.7,1.7
		c0,1.3-1.6,2.3-3.1,2.3c-0.1,0-0.2,0-0.3,0c-0.3-0.4-0.5-1-0.6-1.5c0-1,0.7-1.9,0.7-2.9c0-0.4-0.2-0.9-0.4-1.2
		c0.2-0.2,0.3-0.3,0.5-0.6c-0.1,0-0.3,0.1-0.4,0.1c-0.8,0-1.4-0.2-2-0.2c-0.3,0-0.4,0.1-0.4,0.2v0.1c-0.1,0-0.3-0.1-0.4-0.1
		c-0.2,0-0.4-0.1-0.6-0.1c-0.7,0-1,0.3-1,0.6c0.1,0.3,0.2,0.7,0.4,0.9c0.2-0.1,0.5-0.2,0.8-0.2c0.4,0,0.7,0.4,0.9,0.8
		c-0.2,0-0.4,0-0.6,0c-0.4,0-0.9-0.1-1.3-0.3l0,0c0,0.1,0.2,0.4,0.6,0.5c0.5,0.1,1,0.2,1.4,0.3c-0.1,0.1-0.2,0.2-0.3,0.3h-0.1
		c-0.5-0.1-0.9-0.2-1.4-0.4l0,0c0,0.3,0.7,0.9,1.3,1.1c-0.7,0.7-1.2,1.5-1.5,2.4c-0.1,0-0.2,0-0.3,0c-1.6,0-3.1-1-3.1-2.3
		c0-0.6,0.3-1.2,0.7-1.7c0.2,0,0.4,0.1,0.6,0.1c0.7,0,1.1-0.4,1.1-0.8c0-0.3-0.3-0.6-0.7-0.6c0,0,0,0-0.1,0c-0.7,0-1.9,0.6-3.1,0.6
		c0.2,0.1,0.4,0.2,0.6,0.3c-0.7,0.6-1.2,1.5-1.4,2.4l-1.9,3c-0.5,0.9-1.2,1.6-2,2.3c1.3,0.2,2.5-0.4,3-1.6l1-1.5
		c0.1,0.2,0.2,0.4,0.3,0.6l-1.9,3.1c-0.5,0.9-1.2,1.6-2,2.3c1.3,0.2,2.5-0.4,3-1.6l1.6-2.6c0.1,0.1,0.3,0.3,0.4,0.4L26,62.7
		c-0.5,0.9-1.2,1.6-2,2.2c1.3,0.2,2.5-0.4,3-1.6l2.3-3.6c0.1,0.1,0.3,0.2,0.5,0.3L27,64.4c-0.5,0.9-1.2,1.6-2,2.2
		c1.3,0.2,2.5-0.4,3-1.6l2.8-4.5c0.2,0.1,0.3,0.1,0.5,0.2l-3.2,5.1c-0.5,0.9-1.2,1.6-2,2.2c1.3,0.2,2.5-0.4,3-1.6l3.4-5.5h0.1
		c0.1,0.3,0.1,0.6,0.2,0.8c-0.2,1.8-1.1,3.4-2.5,4.4c0.1,0,0.2,0.1,0.4,0.1c0.2,0,0.4,0,0.6,0c-0.4,0.7-0.8,1.4-1.3,2.1
		c-0.5-0.1-1-0.1-1.5-0.1c-0.4,0-0.5,0.3-0.5,0.5c0,0.3,0.1,0.7,0.4,0.9c0.1-0.2,0.2-0.5,1.1-0.5c0,0,0,0,0.1,0
		c-0.2,0.3-1,0.9-1,1.4c0,0.4,0.4,0.8,0.8,0.8c0-0.1,0-0.2,0-0.3c0.1-0.5,0.3-0.9,0.6-1.2c0,0.1,0,0.1,0,0.2c0,0.9,0.1,1.4,0.7,1.4
		c0.2,0,0.4-0.1,0.6-0.2c-0.3-0.3-0.5-0.7-0.4-1.2c0-0.1,0-0.3,0-0.5c0-0.1,0-0.3,0-0.4c0.2,0,0.3,0,0.5,0c0,0,0.8-0.1,1,0.4
		c0.2-0.2,0.6-0.5,0.6-0.8c0-0.2-0.1-0.5-0.5-0.5c-0.2,0-0.7,0.1-1.1,0.1c0.3-0.6,0.7-1.1,1.1-1.6c0.1,0.2,0.2,0.5,0.4,0.6
		c0.1-0.8,0.3-1.5,0.8-2.1c0.1,0.6,0.2,1.2,0.2,1.8c0,2.3-0.6,4-1.7,4.3c0.2,0.3,0.5,0.5,0.8,0.5c0.4,0,0.7-0.5,0.9-0.9
		c0.1,0.3,0.5,1.2,0.8,1.2s0.7-0.8,0.8-1.2c0.2,0.5,0.5,0.9,0.9,0.9c0.3,0,0.6-0.2,0.8-0.5c-1.2-0.3-1.7-2-1.7-4.3
		c0-0.6,0-1.2,0.1-1.8c0.4,0.6,0.7,1.4,0.8,2.1c0.2-0.2,0.3-0.4,0.4-0.6c0.4,0.5,0.8,1,1.1,1.6c-0.4,0-0.9-0.1-1.1-0.1
		c-0.4,0-0.5,0.2-0.5,0.5s0.3,0.6,0.6,0.8c0.2-0.4,1-0.4,1-0.4c0.2,0,0.3,0,0.5,0c0,0.1,0,0.3,0,0.4c0,0.2,0,0.3,0,0.5
		c0.1,0.4-0.1,0.9-0.4,1.2c0.2,0.1,0.4,0.2,0.6,0.2c0.6,0,0.7-0.4,0.7-1.4c0-0.1,0-0.1,0-0.2c0.3,0.3,0.6,0.7,0.6,1.2
		c0,0.1,0,0.2,0,0.3c0.4,0,0.8-0.4,0.8-0.8c0-0.5-0.7-1.1-1-1.4h0.1c0.8,0,1,0.3,1.1,0.5c0.3-0.2,0.4-0.6,0.4-0.9
		c0-0.2,0-0.5-0.5-0.5s-1,0.1-1.5,0.1c-0.5-0.7-0.9-1.4-1.3-2.1c0.2,0,0.4,0,0.6,0c0.1,0,0.3,0,0.4-0.1c-1.4-1-2.3-2.7-2.5-4.4
		c0-0.3,0.1-0.6,0.2-0.8h0.1l3.4,5.5c0.5,1.2,1.8,1.8,3,1.6c-0.8-0.6-1.5-1.4-2-2.2L38,60.7c0.2-0.1,0.3-0.1,0.5-0.2l2.8,4.5
		c0.5,1.2,1.8,1.8,3,1.6c-0.8-0.6-1.5-1.4-2-2.2L39.5,60c0.2-0.1,0.3-0.2,0.5-0.3l2.3,3.6c0.5,1.2,1.8,1.8,3,1.6
		c-0.8-0.6-1.5-1.4-2-2.2L41,59c0.1-0.1,0.3-0.2,0.4-0.4l1.6,2.6c0.5,1.2,1.8,1.8,3,1.6c-0.8-0.6-1.5-1.4-2-2.3l-1.9-3.1
		c0.1-0.2,0.2-0.4,0.3-0.6L43.4,58.5z M28.1,54.9c0.1-0.9,0.5-1.7,1.1-2.3c0.1,0,0.1,0,0.2,0c-0.5,0.5-0.8,1.2-0.9,1.9
		c0,1.7,1.8,3.1,3.8,3.1c0,0.1,0,0.3,0,0.4c0,0.2,0,0.5,0,0.7C30.2,58.8,28.3,57.2,28.1,54.9z M31.2,68.6L31.2,68.6L31.2,68.6
		c0.4,0,0.8,0,1.2,0c0.1,0,0.2,0,0.3,0c0.2,0,0.3,0,0.3,0.2s-0.2,0.4-0.3,0.5c-0.3-0.2-0.7-0.3-1-0.3c-0.2,0-0.5,0-0.7,0.1l0,0l0,0
		v0.1c0,0.2,0,0.3,0,0.5v0.2v0.3c0,0.4,0.1,0.8,0.3,1.1c-0.1,0-0.1,0-0.2,0c-0.3,0-0.4-0.1-0.4-1.1c0-0.2,0-0.4,0-0.5v-0.2l0,0
		c-0.5,0.4-0.9,0.9-1.1,1.6c-0.2-0.1-0.3-0.3-0.3-0.5c0-0.3,0.4-0.7,0.9-1.2l0.3-0.3l0,0h-0.1c-0.2,0-0.3-0.1-0.5-0.1
		c-0.4,0-0.8,0.1-1.1,0.3c-0.1-0.2-0.1-0.3-0.1-0.5c0-0.1,0-0.1,0.1-0.2c0.1,0,0.1-0.1,0.2,0l0,0c0.5,0,1.1,0.1,1.6,0.2l0,0l0,0
		c0.6-0.7,1.1-1.6,1.5-2.4c0.1,0,0.2,0,0.2,0c0.2,0,0.3,0.2,0.4,0.4C32,67.2,31.5,67.9,31.2,68.6z M37.4,66.2c0.1,0,0.2,0,0.2,0
		c0.4,0.8,0.9,1.7,1.5,2.4l0,0l0,0c0.5-0.1,1.1-0.1,1.6-0.2l0,0c0.1,0,0.1,0,0.2,0c0,0.1,0.1,0.1,0.1,0.2c0,0.2-0.1,0.4-0.1,0.5
		c-0.3-0.3-0.7-0.4-1.1-0.3c-0.2,0-0.3,0-0.5,0.1l0,0l0,0l0.3,0.3c0.5,0.5,0.9,0.9,0.9,1.2c0,0.2-0.1,0.4-0.3,0.5
		c-0.1-0.6-0.5-1.2-1.1-1.6l0,0v0.2c0,0.1,0,0.3,0,0.5c0,1-0.1,1.1-0.4,1.1c-0.1,0-0.1,0-0.2,0c0.2-0.3,0.3-0.7,0.3-1.1v-0.3v-0.2
		c0-0.2,0-0.3,0-0.5v-0.1h-0.1c-0.2,0-0.4-0.1-0.7-0.1c-0.4-0.1-0.7,0-1,0.3c-0.2-0.1-0.3-0.3-0.3-0.5s0.1-0.2,0.3-0.2
		c0.1,0,0.2,0,0.3,0c0.4,0.1,0.8,0.1,1.2,0.1l0,0l0,0c-0.3-0.7-0.8-1.4-1.3-2C37.1,66.4,37.1,66.2,37.4,66.2z M34.7,52.9
		c-0.1-0.3-0.2-0.6-0.4-0.8c-0.2-0.3-0.5-0.4-0.9-0.5c-0.2,0-0.5,0.1-0.7,0.2c-0.1-0.2-0.2-0.4-0.2-0.6c0-0.1,0.2-0.3,0.7-0.3
		c1,0,1.6,0.5,1.6,1.2C34.9,52.4,34.8,52.7,34.7,52.9z M35.2,51.9c0-0.2-0.1-0.4-0.2-0.6c0-0.2,0.1-0.4,0.4-0.2
		c-0.2,0.2,0,0.5,0,0.5s0.4-0.2,0.3-0.4C36.1,51.3,35.7,52,35.2,51.9z M37.2,58.8c0-0.2,0-0.5,0-0.7c0-0.1,0-0.3,0-0.4
		c2,0,3.7-1.5,3.7-3.1c-0.1-0.7-0.4-1.4-0.9-1.9c0.1,0,0.1,0,0.2,0c0.7,0.6,1.1,1.4,1.1,2.3C41.2,57.1,39.4,58.8,37.2,58.8z"/>
	<g>
		<polygon class="st0" points="54.5,91.5 56,91.5 56,111.5 52.5,111.5 52.5,91.5 		"/>
		<polygon class="st1" points="54.5,71.4 56,71.4 56,91.5 52.5,91.5 52.5,71.4 		"/>
		<polygon points="56,51.5 56,71.5 54.5,71.5 52.5,71.5 52.5,51.5 		"/>
	</g>
</g>
<g>
	<path class="st2" d="M63.5,59.4v-8.1h4l-0.1,0.8h-2.9v3h2.7v0.8h-2.7v3.5H63.5z"/>
	<path class="st2" d="M70.5,59.6c-1.4,0-2.3-0.9-2.3-3c0-2,1-2.9,2.1-2.9s1.7,0.7,1.7,2c0,0.5,0,0.8-0.1,1.1H69
		c0.1,1.3,0.6,1.9,1.5,1.9c0.7,0,1.1-0.4,1.2-0.5l0.4,0.7C72,59.1,71.6,59.6,70.5,59.6z M69.2,56.1h2c0-0.1,0-0.2,0-0.4
		c0-0.8-0.3-1.2-0.9-1.2C69.6,54.4,69.2,55,69.2,56.1z"/>
	<path class="st2" d="M75.1,59.6c-1.1,0-2-0.8-2-2.9c0-2.3,1.3-3,2.5-3c0.4,0,0.6,0.1,0.8,0.1v-2.7l0.9-0.1v8.4h-0.9v-0.6l0,0
		C76.3,59,76,59.6,75.1,59.6z M76.4,58.2v-3.5c-0.2-0.1-0.4-0.2-0.7-0.2c-0.9,0-1.6,0.6-1.6,2.2c0,1.5,0.6,2.1,1.2,2.1
		C75.9,58.7,76.2,58.4,76.4,58.2z"/>
	<path class="st2" d="M80.8,59.6c-1.4,0-2.3-0.9-2.3-3c0-2,1-2.9,2.1-2.9s1.7,0.7,1.7,2c0,0.5,0,0.8-0.1,1.1h-2.9
		c0.1,1.3,0.6,1.9,1.5,1.9c0.7,0,1.1-0.4,1.2-0.5l0.4,0.7C82.4,59.1,81.9,59.6,80.8,59.6z M79.5,56.1h2c0-0.1,0-0.2,0-0.4
		c0-0.8-0.3-1.2-0.9-1.2C79.9,54.4,79.5,55,79.5,56.1z"/>
	<path class="st2" d="M86.1,54.6c0,0-0.2-0.1-0.5-0.1c-0.6,0-0.9,0.4-1.1,0.8v4.1h-0.9v-5.6h0.9v0.8l0,0c0.2-0.4,0.5-0.9,1.2-0.9
		c0.3,0,0.4,0.1,0.5,0.1L86.1,54.6z"/>
	<path class="st2" d="M89.3,55.7c0-0.9-0.4-1.3-1-1.3s-0.9,0.3-1.1,0.5l-0.4-0.6c0.2-0.2,0.8-0.7,1.7-0.7c1.1,0,1.8,0.6,1.8,2v2.6
		c0,0.5,0,1,0.1,1.2h-0.9c0-0.2,0-0.3,0-0.6l0,0c-0.1,0.3-0.5,0.8-1.2,0.8c-0.9,0-1.5-0.7-1.5-1.6c0-1.3,1.1-1.7,2.3-1.7h0.3v-0.6
		C89.4,55.7,89.3,55.7,89.3,55.7z M89,57c-0.9,0-1.4,0.3-1.4,0.9c0,0.6,0.3,0.9,0.8,0.9c0.6,0,0.8-0.4,0.9-0.6V57H89z"/>
	<path class="st2" d="M92.6,58.1c0,0.5,0.1,0.6,0.4,0.6c0.2,0,0.3,0,0.4-0.1l0.1,0.7c-0.1,0-0.3,0.2-0.8,0.2c-0.6,0-1.1-0.3-1.1-1.3
		v-7.1l0.9-0.1L92.6,58.1L92.6,58.1z"/>
	<path class="st2" d="M103.8,51.3v8.1h-1v-3.8c0-1,0-1.9,0-2.3l0,0c-0.1,0.4-0.4,1.3-0.7,2.2l-1.3,4H100l-1.3-4
		c-0.3-0.9-0.6-1.8-0.7-2.2l0,0c0,0.4,0,1.3,0,2.3v3.8h-1v-8.1h1.1l1.9,5.6c0.2,0.5,0.3,1,0.4,1.4l0,0c0-0.4,0.2-0.9,0.3-1.4
		l1.9-5.6C102.6,51.3,103.8,51.3,103.8,51.3z"/>
	<path class="st2" d="M105.3,51.8c0-0.4,0.3-0.7,0.6-0.7c0.4,0,0.6,0.3,0.6,0.7s-0.3,0.7-0.6,0.7C105.5,52.4,105.3,52.2,105.3,51.8z
		 M106.4,59.4h-0.9v-5.6h0.9V59.4z"/>
	<path class="st2" d="M108.8,55.1v4.3h-0.9v-5.6h0.9v0.6l0,0c0.1-0.2,0.6-0.8,1.5-0.8c1,0,1.6,0.6,1.6,2.1v3.7H111v-3.6
		c0-0.9-0.3-1.3-1-1.3S109,54.9,108.8,55.1z"/>
	<path class="st2" d="M113.1,51.8c0-0.4,0.3-0.7,0.6-0.7c0.4,0,0.6,0.3,0.6,0.7s-0.3,0.7-0.6,0.7C113.4,52.4,113.1,52.2,113.1,51.8z
		 M114.2,59.4h-0.9v-5.6h0.9V59.4z"/>
	<path class="st2" d="M118.1,54.9c-0.1-0.1-0.5-0.5-1-0.5s-0.8,0.3-0.8,0.6c0,0.4,0.2,0.7,0.7,1l0.4,0.2c0.8,0.5,1.2,0.9,1.2,1.7
		c0,0.9-0.6,1.6-1.8,1.6c-0.9,0-1.4-0.4-1.6-0.6l0.5-0.8c0.2,0.2,0.5,0.6,1.1,0.6s0.9-0.3,0.9-0.6c0-0.5-0.3-0.7-0.8-1.1l-0.4-0.2
		c-0.7-0.4-1.1-0.9-1.1-1.7s0.7-1.5,1.6-1.5s1.2,0.4,1.4,0.6L118.1,54.9z"/>
	<path class="st2" d="M121.4,59.6c-1,0-1.5-0.5-1.5-1.7v-3.2h-0.7v-0.6l0.7-0.1l0.1-1.6h0.8V54h1.3l-0.1,0.8h-1.2v3.1
		c0,0.8,0.2,1,0.7,1c0.3,0,0.5-0.1,0.6-0.2l0.1,0.8C122.2,59.4,121.9,59.6,121.4,59.6z"/>
	<path class="st2" d="M125.7,54.6c0,0-0.2-0.1-0.5-0.1c-0.6,0-0.9,0.4-1.1,0.8v4.1h-0.9v-5.6h0.9v0.8l0,0c0.2-0.4,0.5-0.9,1.2-0.9
		c0.3,0,0.4,0.1,0.5,0.1L125.7,54.6z"/>
	<path class="st2" d="M130.4,53.8l-1.8,6c-0.4,1.4-0.9,2.1-2,2.1c-0.2,0-0.4-0.1-0.5-0.1V61c0.1,0,0.2,0.1,0.4,0.1
		c0.7,0,1-0.4,1.2-1.3l0.1-0.3l-1.8-5.6h1l0.9,3.1c0.2,0.6,0.3,1.2,0.4,1.6l0,0c0-0.4,0.2-1,0.3-1.6l0.8-3.1h1V53.8z"/>
	<path class="st2" d="M64.5,66.7v4.9h-0.9v-4.9h-0.7V66l0.7-0.1v-1.1c0-1.2,0.7-1.7,1.6-1.7c0.4,0,0.7,0.2,0.8,0.2L65.8,64
		c-0.1-0.1-0.3-0.2-0.5-0.2c-0.4,0-0.7,0.2-0.7,1v1h1.3l-0.1,0.8L64.5,66.7L64.5,66.7z"/>
	<path class="st2" d="M68.5,65.7c1.2,0,2.2,0.9,2.2,3s-1,3-2.3,3c-1.2,0-2.2-0.8-2.2-3C66.3,66.6,67.3,65.7,68.5,65.7z M68.5,66.5
		c-0.8,0-1.2,0.7-1.2,2.1c0,1.5,0.5,2.1,1.2,2.1c0.8,0,1.2-0.6,1.2-2.1C69.7,67.2,69.3,66.5,68.5,66.5z"/>
	<path class="st2" d="M74.4,66.7c0,0-0.2-0.1-0.5-0.1c-0.6,0-0.9,0.4-1.1,0.8v4.1h-0.9v-5.6h0.9v0.8l0,0c0.2-0.4,0.5-0.9,1.2-0.9
		c0.3,0,0.4,0.1,0.5,0.1L74.4,66.7z"/>
	<path class="st2" d="M79.2,71.6c-1,0-1.5-0.5-1.5-1.7v-3.2H77V66l0.7-0.1l0.1-1.6h0.8v1.6h1.3l-0.1,0.8h-1.2v3.1c0,0.8,0.2,1,0.7,1
		c0.3,0,0.5-0.1,0.6-0.2l0.1,0.8C80,71.5,79.7,71.6,79.2,71.6z"/>
	<path class="st2" d="M82,67.2v4.3h-1v-8.3l0.9-0.1v3.3l0,0c0.1-0.2,0.5-0.7,1.4-0.7c1,0,1.6,0.6,1.6,2.1v3.7H84v-3.6
		c0-0.9-0.3-1.3-1-1.3C82.5,66.5,82.1,66.9,82,67.2z"/>
	<path class="st2" d="M88.5,71.6c-1.4,0-2.3-0.9-2.3-3c0-2,1-2.9,2.1-2.9s1.7,0.7,1.7,2c0,0.5,0,0.8-0.1,1.1H87
		c0.1,1.3,0.6,1.9,1.5,1.9c0.7,0,1.1-0.4,1.2-0.5l0.4,0.7C90,71.1,89.6,71.6,88.5,71.6z M87.1,68.2h2c0-0.1,0-0.2,0-0.4
		c0-0.8-0.3-1.2-0.9-1.2C87.6,66.5,87.2,67.1,87.1,68.2z"/>
	<path class="st2" d="M97.9,64.2H95V67h2.6v0.8H95v2.8h3.2l-0.1,0.8H94v-8.1h4L97.9,64.2z"/>
	<path class="st2" d="M100.3,67.2v4.3h-0.9v-5.6h0.9v0.6l0,0c0.1-0.2,0.6-0.8,1.5-0.8c1,0,1.6,0.6,1.6,2.1v3.7h-0.9v-3.6
		c0-0.9-0.3-1.3-1-1.3C100.9,66.5,100.5,66.9,100.3,67.2z"/>
	<path class="st2" d="M108.6,65.9l-1.7,5.6H106l-1.7-5.6h1l0.8,3.1c0.2,0.6,0.3,1.1,0.3,1.6l0,0c0-0.5,0.2-1,0.4-1.6l0.9-3.1H108.6z
		"/>
	<path class="st2" d="M109.3,63.8c0-0.4,0.3-0.7,0.6-0.7c0.4,0,0.6,0.3,0.6,0.7c0,0.4-0.3,0.7-0.6,0.7
		C109.5,64.5,109.3,64.2,109.3,63.8z M110.4,71.5h-0.9v-5.6h0.9V71.5z"/>
	<path class="st2" d="M114.3,66.7c0,0-0.2-0.1-0.5-0.1c-0.6,0-0.9,0.4-1.1,0.8v4.1h-0.9v-5.6h0.9v0.8l0,0c0.2-0.4,0.5-0.9,1.2-0.9
		c0.3,0,0.4,0.1,0.5,0.1L114.3,66.7z"/>
	<path class="st2" d="M117.1,65.7c1.2,0,2.2,0.9,2.2,3s-1,3-2.3,3c-1.2,0-2.2-0.8-2.2-3C114.8,66.6,115.9,65.7,117.1,65.7z
		 M117,66.5c-0.8,0-1.2,0.7-1.2,2.1c0,1.5,0.5,2.1,1.2,2.1c0.8,0,1.2-0.6,1.2-2.1C118.3,67.2,117.8,66.5,117,66.5z"/>
	<path class="st2" d="M121.4,67.2v4.3h-0.9v-5.6h0.9v0.6l0,0c0.1-0.2,0.6-0.8,1.5-0.8c1,0,1.6,0.6,1.6,2.1v3.7h-0.9v-3.6
		c0-0.9-0.3-1.3-1-1.3C122,66.5,121.6,66.9,121.4,67.2z"/>
	<path class="st2" d="M126.9,67.2v4.3H126v-5.6h0.9v0.6l0,0c0.2-0.3,0.6-0.8,1.4-0.8c0.6,0,1.1,0.2,1.4,0.8c0.2-0.3,0.8-0.8,1.5-0.8
		c1.1,0,1.7,0.7,1.7,2v3.8H132v-3.6c0-0.9-0.3-1.3-1-1.3c-0.5,0-0.9,0.3-1.1,0.6c0,0.2,0,0.4,0,0.6v3.8H129V68
		c0-0.9-0.3-1.3-0.8-1.3C127.4,66.6,127,67,126.9,67.2z"/>
	<path class="st2" d="M136.2,71.6c-1.4,0-2.3-0.9-2.3-3c0-2,1-2.9,2.1-2.9s1.7,0.7,1.7,2c0,0.5,0,0.8-0.1,1.1h-2.9
		c0.1,1.3,0.6,1.9,1.5,1.9c0.7,0,1.1-0.4,1.2-0.5l0.4,0.7C137.8,71.1,137.3,71.6,136.2,71.6z M134.9,68.2h2c0-0.1,0-0.2,0-0.4
		c0-0.8-0.3-1.2-0.9-1.2C135.3,66.5,134.9,67.1,134.9,68.2z"/>
	<path class="st2" d="M140,67.2v4.3h-0.9v-5.6h0.9v0.6l0,0c0.1-0.2,0.6-0.8,1.5-0.8c1,0,1.6,0.6,1.6,2.1v3.7h-0.9v-3.6
		c0-0.9-0.3-1.3-1-1.3C140.6,66.5,140.2,66.9,140,67.2z"/>
	<path class="st2" d="M146.2,71.6c-1,0-1.5-0.5-1.5-1.7v-3.2H144V66l0.7-0.1l0.1-1.6h0.8v1.6h1.3l-0.1,0.8h-1.2v3.1
		c0,0.8,0.2,1,0.7,1c0.3,0,0.5-0.1,0.6-0.2l0.1,0.8C147,71.5,146.7,71.6,146.2,71.6z"/>
	<path class="st2" d="M147.6,72.7c0.5-0.2,0.9-0.6,0.9-1.2l0,0c-0.4,0-0.6-0.2-0.6-0.7c0-0.4,0.3-0.6,0.6-0.6c0.5,0,0.8,0.4,0.8,1.1
		c0,1.1-0.7,1.6-1.4,1.8L147.6,72.7z"/>
	<path class="st2" d="M158.2,63.4v8.1h-0.9l-2.7-4.9c-0.3-0.6-0.7-1.2-0.7-1.5l0,0c0.1,0.3,0.1,1,0.1,1.7v4.7h-1v-8.1h0.9l2.7,4.8
		c0.3,0.6,0.7,1.2,0.7,1.5l0,0c-0.1-0.3-0.1-1-0.1-1.7v-4.6H158.2z"/>
	<path class="st2" d="M162.2,67.8c0-0.9-0.4-1.3-1-1.3s-0.9,0.3-1.1,0.5l-0.4-0.6c0.2-0.2,0.8-0.7,1.7-0.7c1.1,0,1.8,0.6,1.8,2v2.6
		c0,0.5,0,1,0.1,1.2h-0.9c0-0.2,0-0.3,0-0.6l0,0c-0.1,0.3-0.5,0.8-1.2,0.8c-0.9,0-1.5-0.7-1.5-1.6c0-1.3,1.1-1.7,2.3-1.7h0.3v-0.6
		C162.3,67.8,162.2,67.8,162.2,67.8z M161.9,69.1c-0.9,0-1.4,0.3-1.4,0.9s0.3,0.9,0.8,0.9c0.6,0,0.8-0.4,0.9-0.6V69L161.9,69.1z"/>
	<path class="st2" d="M166.2,71.6c-1,0-1.5-0.5-1.5-1.7v-3.2H164V66l0.7-0.1l0.1-1.6h0.8v1.6h1.3l-0.1,0.8h-1.2v3.1
		c0,0.8,0.2,1,0.7,1c0.3,0,0.5-0.1,0.6-0.2l0.1,0.8C167,71.5,166.7,71.6,166.2,71.6z"/>
	<path class="st2" d="M169.6,71.6c-1,0-1.6-0.6-1.6-2.1v-3.7h0.9v3.6c0,0.9,0.3,1.3,0.9,1.3c0.6,0,0.9-0.4,1.1-0.6v-4.3h0.9v5.6
		h-0.9v-0.6l0,0C171,71.1,170.5,71.6,169.6,71.6z"/>
	<path class="st2" d="M175.9,66.7c0,0-0.2-0.1-0.5-0.1c-0.6,0-0.9,0.4-1.1,0.8v4.1h-0.9v-5.6h0.9v0.8l0,0c0.2-0.4,0.5-0.9,1.2-0.9
		c0.3,0,0.4,0.1,0.5,0.1L175.9,66.7z"/>
	<path class="st2" d="M178.8,71.6c-1.4,0-2.3-0.9-2.3-3c0-2,1-2.9,2.1-2.9s1.7,0.7,1.7,2c0,0.5,0,0.8-0.1,1.1h-2.9
		c0.1,1.3,0.6,1.9,1.5,1.9c0.7,0,1.1-0.4,1.2-0.5l0.4,0.7C180.3,71.1,179.8,71.6,178.8,71.6z M177.4,68.2h2c0-0.1,0-0.2,0-0.4
		c0-0.8-0.3-1.2-0.9-1.2C177.9,66.5,177.4,67.1,177.4,68.2z"/>
	<path class="st2" d="M187.2,63.3c1.2,0,1.7,0.6,1.9,0.8l-0.6,0.7c-0.2-0.2-0.6-0.6-1.3-0.6c-1.2,0-2.2,0.9-2.2,3.3
		c0,2.5,0.8,3.4,2.1,3.4c0.9,0,1.3-0.4,1.5-0.6L189,71c-0.2,0.2-0.8,0.8-2,0.8c-1.9,0-3.1-1.2-3.1-4.2
		C183.9,64.4,185.5,63.3,187.2,63.3z"/>
	<path class="st2" d="M191.9,65.7c1.2,0,2.2,0.9,2.2,3s-1,3-2.3,3c-1.2,0-2.2-0.8-2.2-3C189.7,66.6,190.7,65.7,191.9,65.7z
		 M191.9,66.5c-0.8,0-1.2,0.7-1.2,2.1c0,1.5,0.5,2.1,1.2,2.1c0.8,0,1.2-0.6,1.2-2.1C193.1,67.2,192.7,66.5,191.9,66.5z"/>
	<path class="st2" d="M196.3,67.2v4.3h-0.9v-5.6h0.9v0.6l0,0c0.1-0.2,0.6-0.8,1.5-0.8c1,0,1.6,0.6,1.6,2.1v3.7h-0.9v-3.6
		c0-0.9-0.3-1.3-1-1.3C196.8,66.5,196.5,66.9,196.3,67.2z"/>
	<path class="st2" d="M203.2,67c-0.1-0.1-0.5-0.5-1-0.5s-0.8,0.3-0.8,0.6c0,0.4,0.2,0.7,0.7,1l0.4,0.2c0.8,0.5,1.2,0.9,1.2,1.7
		c0,0.9-0.6,1.6-1.8,1.6c-0.9,0-1.4-0.4-1.6-0.6l0.5-0.8c0.2,0.2,0.5,0.6,1.1,0.6s0.9-0.3,0.9-0.6c0-0.5-0.3-0.7-0.8-1.1l-0.4-0.2
		c-0.7-0.4-1.1-0.9-1.1-1.7c0-0.8,0.7-1.5,1.6-1.5c0.9,0,1.2,0.4,1.4,0.6L203.2,67z"/>
	<path class="st2" d="M206.9,71.6c-1.4,0-2.3-0.9-2.3-3c0-2,1-2.9,2.1-2.9s1.7,0.7,1.7,2c0,0.5,0,0.8-0.1,1.1h-2.9
		c0.1,1.3,0.6,1.9,1.5,1.9c0.7,0,1.1-0.4,1.2-0.5l0.4,0.7C208.4,71.1,208,71.6,206.9,71.6z M205.5,68.2h2c0-0.1,0-0.2,0-0.4
		c0-0.8-0.3-1.2-0.9-1.2C206,66.5,205.6,67.1,205.5,68.2z"/>
	<path class="st2" d="M212.2,66.7c0,0-0.2-0.1-0.5-0.1c-0.6,0-0.9,0.4-1.1,0.8v4.1h-0.9v-5.6h0.9v0.8l0,0c0.2-0.4,0.5-0.9,1.2-0.9
		c0.3,0,0.4,0.1,0.5,0.1L212.2,66.7z"/>
	<path class="st2" d="M216.9,65.9l-1.7,5.6h-0.9l-1.7-5.6h1l0.8,3.1c0.2,0.6,0.3,1.1,0.3,1.6l0,0c0-0.5,0.2-1,0.4-1.6l0.9-3.1H216.9
		z"/>
	<path class="st2" d="M220,67.8c0-0.9-0.4-1.3-1-1.3s-0.9,0.3-1.1,0.5l-0.4-0.6c0.2-0.2,0.8-0.7,1.7-0.7c1.1,0,1.8,0.6,1.8,2v2.6
		c0,0.5,0,1,0.1,1.2h-0.9c0-0.2,0-0.3,0-0.6l0,0c-0.1,0.3-0.5,0.8-1.2,0.8c-0.9,0-1.5-0.7-1.5-1.6c0-1.3,1.1-1.7,2.3-1.7h0.3v-0.6
		C220.1,67.8,220,67.8,220,67.8z M219.7,69.1c-0.9,0-1.4,0.3-1.4,0.9s0.3,0.9,0.8,0.9c0.6,0,0.8-0.4,0.9-0.6V69L219.7,69.1z"/>
	<path class="st2" d="M224.1,71.6c-1,0-1.5-0.5-1.5-1.7v-3.2h-0.7V66l0.7-0.1l0.1-1.6h0.8v1.6h1.3l-0.1,0.8h-1.2v3.1
		c0,0.8,0.2,1,0.7,1c0.3,0,0.5-0.1,0.6-0.2l0.1,0.8C224.9,71.5,224.6,71.6,224.1,71.6z"/>
	<path class="st2" d="M225.7,63.8c0-0.4,0.3-0.7,0.6-0.7c0.4,0,0.6,0.3,0.6,0.7c0,0.4-0.3,0.7-0.6,0.7S225.7,64.2,225.7,63.8z
		 M226.8,71.5h-0.9v-5.6h0.9V71.5z"/>
	<path class="st2" d="M230.3,65.7c1.2,0,2.2,0.9,2.2,3s-1,3-2.3,3c-1.2,0-2.2-0.8-2.2-3C228,66.6,229.1,65.7,230.3,65.7z
		 M230.2,66.5c-0.8,0-1.2,0.7-1.2,2.1c0,1.5,0.5,2.1,1.2,2.1c0.8,0,1.2-0.6,1.2-2.1C231.5,67.2,231,66.5,230.2,66.5z"/>
	<path class="st2" d="M234.6,67.2v4.3h-0.9v-5.6h0.9v0.6l0,0c0.1-0.2,0.6-0.8,1.5-0.8c1,0,1.6,0.6,1.6,2.1v3.7h-0.9v-3.6
		c0-0.9-0.3-1.3-1-1.3C235.2,66.5,234.8,66.9,234.6,67.2z"/>
	<path class="st2" d="M238.8,72.7c0.5-0.2,0.9-0.6,0.9-1.2l0,0c-0.4,0-0.6-0.2-0.6-0.7c0-0.4,0.3-0.6,0.6-0.6c0.5,0,0.8,0.4,0.8,1.1
		c0,1.1-0.7,1.6-1.4,1.8L238.8,72.7z"/>
	<path class="st2" d="M68.9,75.5v8.1H68l-2.7-4.9c-0.3-0.6-0.7-1.2-0.7-1.5l0,0c0.1,0.3,0.1,1,0.1,1.7v4.7h-1v-8.1h0.9l2.7,4.8
		c0.3,0.6,0.7,1.2,0.7,1.5l0,0c-0.1-0.3-0.1-1-0.1-1.7v-4.6H68.9z"/>
	<path class="st2" d="M72.1,83.7c-1,0-1.6-0.6-1.6-2.1V78h0.9v3.6c0,0.9,0.3,1.3,0.9,1.3s0.9-0.4,1.1-0.6V78h0.9v5.6h-0.9V83l0,0
		C73.5,83.1,73,83.7,72.1,83.7z"/>
	<path class="st2" d="M79.1,79c-0.1-0.1-0.4-0.4-1-0.4c-0.8,0-1.4,0.6-1.4,2.1c0,1.7,0.6,2.2,1.4,2.2c0.6,0,0.9-0.3,1-0.4l0.4,0.7
		c-0.2,0.2-0.6,0.6-1.5,0.6c-1.3,0-2.3-0.8-2.3-3s1.2-2.9,2.4-2.9c0.9,0,1.3,0.4,1.4,0.6L79.1,79z"/>
	<path class="st2" d="M81.4,82.3c0,0.5,0.1,0.6,0.4,0.6c0.2,0,0.3,0,0.4-0.1l0.1,0.7c-0.1,0-0.3,0.2-0.8,0.2c-0.6,0-1.1-0.3-1.1-1.3
		v-7.1l0.9-0.1L81.4,82.3L81.4,82.3z"/>
	<path class="st2" d="M85.2,83.7c-1.4,0-2.3-0.9-2.3-3c0-2,1-2.9,2.1-2.9s1.7,0.7,1.7,2c0,0.5,0,0.8-0.1,1.1h-2.9
		c0.1,1.3,0.6,1.9,1.5,1.9c0.7,0,1.1-0.4,1.2-0.5l0.4,0.7C86.7,83.2,86.2,83.7,85.2,83.7z M83.8,80.2h2c0-0.1,0-0.2,0-0.4
		c0-0.8-0.3-1.2-0.9-1.2S83.8,79.2,83.8,80.2z"/>
	<path class="st2" d="M90.3,79.9c0-0.9-0.4-1.3-1-1.3s-0.9,0.3-1.1,0.5l-0.4-0.6c0.2-0.2,0.8-0.7,1.7-0.7c1.1,0,1.8,0.6,1.8,2v2.6
		c0,0.5,0,1,0.1,1.2h-0.9c0-0.2,0-0.3,0-0.6l0,0c-0.1,0.3-0.5,0.8-1.2,0.8c-0.9,0-1.5-0.7-1.5-1.6c0-1.3,1.1-1.7,2.3-1.7h0.3v-0.6
		C90.4,79.9,90.3,79.9,90.3,79.9z M90,81.1c-0.9,0-1.4,0.3-1.4,0.9s0.3,0.9,0.8,0.9c0.6,0,0.8-0.4,0.9-0.6v-1.2L90,81.1z"/>
	<path class="st2" d="M95.1,78.8c0,0-0.2-0.1-0.5-0.1c-0.6,0-0.9,0.4-1.1,0.8v4.1h-0.9V78h0.9v0.8l0,0c0.2-0.4,0.5-0.9,1.2-0.9
		c0.3,0,0.4,0.1,0.5,0.1L95.1,78.8z"/>
	<path class="st2" d="M101.6,76.7c-0.1-0.1-0.6-0.5-1.3-0.5c-0.7,0-1.1,0.4-1.1,0.9c0,0.6,0.3,1,1.1,1.6l0.7,0.5
		c0.8,0.6,1.4,1.3,1.4,2.3c0,1.2-0.8,2.1-2.3,2.1c-1.2,0-1.8-0.5-2-0.7l0.4-0.9c0.2,0.2,0.7,0.7,1.6,0.7c0.8,0,1.2-0.5,1.2-1
		c0-0.7-0.3-1.1-1-1.7l-0.7-0.6c-0.9-0.8-1.4-1.3-1.4-2.4c0-1,0.8-1.8,2.1-1.8c1.1,0,1.6,0.5,1.8,0.6L101.6,76.7z"/>
	<path class="st2" d="M105.7,79.9c0-0.9-0.4-1.3-1-1.3s-0.9,0.3-1.1,0.5l-0.4-0.6c0.2-0.2,0.8-0.7,1.7-0.7c1.1,0,1.8,0.6,1.8,2v2.6
		c0,0.5,0,1,0.1,1.2h-0.9c0-0.2,0-0.3,0-0.6l0,0c-0.1,0.3-0.5,0.8-1.2,0.8c-0.9,0-1.5-0.7-1.5-1.6c0-1.3,1.1-1.7,2.3-1.7h0.3v-0.6
		C105.8,79.9,105.7,79.9,105.7,79.9z M105.4,81.1c-0.9,0-1.4,0.3-1.4,0.9s0.3,0.9,0.8,0.9c0.6,0,0.8-0.4,0.9-0.6v-1.2L105.4,81.1z"
		/>
	<path class="st2" d="M109.3,78.7v4.9h-0.9v-4.9h-0.7v-0.6l0.7-0.1v-1.1c0-1.2,0.7-1.7,1.6-1.7c0.4,0,0.7,0.2,0.8,0.2l-0.2,0.8
		c-0.1-0.1-0.3-0.2-0.5-0.2c-0.4,0-0.7,0.2-0.7,1v1h1.3l-0.1,0.8h-1.3C109.3,78.8,109.3,78.7,109.3,78.7z"/>
	<path class="st2" d="M113.3,83.7c-1.4,0-2.3-0.9-2.3-3c0-2,1-2.9,2.1-2.9s1.7,0.7,1.7,2c0,0.5,0,0.8-0.1,1.1h-2.9
		c0.1,1.3,0.6,1.9,1.5,1.9c0.7,0,1.1-0.4,1.2-0.5l0.4,0.7C114.8,83.2,114.4,83.7,113.3,83.7z M111.9,80.2h2c0-0.1,0-0.2,0-0.4
		c0-0.8-0.3-1.2-0.9-1.2S112,79.2,111.9,80.2z"/>
	<path class="st2" d="M117.8,83.7c-1,0-1.5-0.5-1.5-1.7v-3.2h-0.7v-0.6l0.7-0.1l0.1-1.6h0.8V78h1.3l-0.1,0.8h-1.2v3.1
		c0,0.8,0.2,1,0.7,1c0.3,0,0.5-0.1,0.6-0.2l0.1,0.8C118.6,83.5,118.3,83.7,117.8,83.7z"/>
	<path class="st2" d="M123.4,78l-1.8,6c-0.4,1.4-0.9,2.1-2,2.1c-0.2,0-0.4-0.1-0.5-0.1v-0.8c0.1,0,0.2,0.1,0.4,0.1
		c0.7,0,1-0.4,1.2-1.3l0.1-0.3L119,78h1l0.9,3.1c0.2,0.6,0.3,1.2,0.4,1.6l0,0c0-0.4,0.2-1,0.3-1.6l0.8-3.1H123.4z"/>
	<path class="st2" d="M128.9,79.9c0-0.9-0.4-1.3-1-1.3c-0.6,0-0.9,0.3-1.1,0.5l-0.4-0.6c0.2-0.2,0.8-0.7,1.7-0.7
		c1.1,0,1.8,0.6,1.8,2v2.6c0,0.5,0,1,0.1,1.2h-1c0-0.2,0-0.3,0-0.6l0,0c-0.1,0.3-0.5,0.8-1.2,0.8c-0.9,0-1.5-0.7-1.5-1.6
		c0-1.3,1.1-1.7,2.3-1.7h0.3L128.9,79.9L128.9,79.9z M128.6,81.1c-0.9,0-1.4,0.3-1.4,0.9s0.3,0.9,0.8,0.9c0.6,0,0.8-0.4,0.9-0.6
		v-1.2L128.6,81.1z"/>
	<path class="st2" d="M132.2,79.2v4.3h-0.9V78h0.9v0.6l0,0c0.1-0.2,0.6-0.8,1.5-0.8c1,0,1.6,0.6,1.6,2.1v3.7h-0.9V80
		c0-0.9-0.3-1.3-1-1.3C132.8,78.6,132.4,79,132.2,79.2z"/>
	<path class="st2" d="M138.4,83.7c-1.1,0-2-0.8-2-2.9c0-2.3,1.3-3,2.5-3c0.4,0,0.6,0.1,0.8,0.1v-2.7l0.9-0.1v8.4h-0.9V83l0,0
		C139.7,83.2,139.3,83.7,138.4,83.7z M139.7,82.3v-3.5c-0.2-0.1-0.4-0.2-0.7-0.2c-0.9,0-1.6,0.6-1.6,2.2c0,1.5,0.6,2.1,1.2,2.1
		C139.2,82.9,139.6,82.5,139.7,82.3z"/>
	<path class="st2" d="M147.7,75.4c1.2,0,1.7,0.6,1.9,0.8l-0.6,0.7c-0.2-0.2-0.6-0.6-1.3-0.6c-1.2,0-2.2,0.9-2.2,3.3
		c0,2.5,0.8,3.4,2.1,3.4c0.9,0,1.3-0.4,1.5-0.6l0.4,0.7c-0.2,0.2-0.8,0.8-2,0.8c-1.9,0-3.1-1.2-3.1-4.2
		C144.4,76.5,146,75.4,147.7,75.4z"/>
	<path class="st2" d="M152.5,77.8c1.2,0,2.2,0.9,2.2,3s-1,3-2.3,3c-1.2,0-2.2-0.8-2.2-3C150.2,78.7,151.3,77.8,152.5,77.8z
		 M152.4,78.6c-0.8,0-1.2,0.7-1.2,2.1s0.5,2.1,1.2,2.1c0.8,0,1.2-0.6,1.2-2.1S153.2,78.6,152.4,78.6z"/>
	<path class="st2" d="M156.8,79.2v4.3h-0.9V78h0.9v0.6l0,0c0.1-0.2,0.6-0.8,1.5-0.8c1,0,1.6,0.6,1.6,2.1v3.7H159V80
		c0-0.9-0.3-1.3-1-1.3C157.4,78.6,157,79,156.8,79.2z"/>
	<path class="st2" d="M163.7,79.1c-0.1-0.1-0.5-0.5-1-0.5s-0.8,0.3-0.8,0.6c0,0.4,0.2,0.7,0.7,1l0.4,0.2c0.8,0.5,1.2,0.9,1.2,1.7
		c0,0.9-0.6,1.6-1.8,1.6c-0.9,0-1.4-0.4-1.6-0.6l0.5-0.8c0.2,0.2,0.5,0.6,1.1,0.6s0.9-0.3,0.9-0.6c0-0.5-0.3-0.7-0.8-1.1l-0.4-0.2
		c-0.7-0.4-1.1-0.9-1.1-1.7c0-0.8,0.7-1.5,1.6-1.5c0.9,0,1.2,0.4,1.4,0.6L163.7,79.1z"/>
	<path class="st2" d="M167,83.7c-1,0-1.6-0.6-1.6-2.1V78h0.9v3.6c0,0.9,0.3,1.3,0.9,1.3c0.6,0,0.9-0.4,1.1-0.6V78h0.9v5.6h-0.9V83
		l0,0C168.3,83.1,167.8,83.7,167,83.7z"/>
	<path class="st2" d="M171.7,79.2v4.3h-0.9V78h0.9v0.6l0,0c0.2-0.3,0.6-0.8,1.4-0.8c0.6,0,1.1,0.2,1.4,0.8c0.2-0.3,0.8-0.8,1.5-0.8
		c1.1,0,1.7,0.7,1.7,2v3.8h-0.9V80c0-0.9-0.3-1.3-1-1.3c-0.5,0-0.9,0.3-1.1,0.6c0,0.2,0,0.4,0,0.6v3.8h-0.9V80
		c0-0.9-0.3-1.3-0.8-1.3C172.2,78.7,171.9,79,171.7,79.2z"/>
	<path class="st2" d="M181.1,83.7c-1.4,0-2.3-0.9-2.3-3c0-2,1-2.9,2.1-2.9s1.7,0.7,1.7,2c0,0.5,0,0.8-0.1,1.1h-2.9
		c0.1,1.3,0.6,1.9,1.5,1.9c0.7,0,1.1-0.4,1.2-0.5l0.4,0.7C182.6,83.2,182.2,83.7,181.1,83.7z M179.7,80.2h2c0-0.1,0-0.2,0-0.4
		c0-0.8-0.3-1.2-0.9-1.2C180.2,78.6,179.8,79.2,179.7,80.2z"/>
	<path class="st2" d="M186.4,78.8c0,0-0.2-0.1-0.5-0.1c-0.6,0-0.9,0.4-1.1,0.8v4.1h-0.9V78h0.9v0.8l0,0c0.2-0.4,0.5-0.9,1.2-0.9
		c0.3,0,0.4,0.1,0.5,0.1L186.4,78.8z"/>
	<path class="st2" d="M191.4,80.6h-0.6v2.9h-1v-8.1h1.7c2,0,2.9,0.9,2.9,2.4C194.3,79.5,193.3,80.6,191.4,80.6z M191.4,76.3h-0.6
		v3.5h0.6c1.3,0,1.9-0.7,1.9-1.9C193.2,76.9,192.7,76.3,191.4,76.3z"/>
	<path class="st2" d="M197.8,78.8c0,0-0.2-0.1-0.5-0.1c-0.6,0-0.9,0.4-1.1,0.8v4.1h-0.9V78h0.9v0.8l0,0c0.2-0.4,0.5-0.9,1.2-0.9
		c0.3,0,0.4,0.1,0.5,0.1L197.8,78.8z"/>
	<path class="st2" d="M200.6,77.8c1.2,0,2.2,0.9,2.2,3s-1,3-2.3,3c-1.2,0-2.2-0.8-2.2-3C198.4,78.7,199.4,77.8,200.6,77.8z
		 M200.6,78.6c-0.8,0-1.2,0.7-1.2,2.1s0.5,2.1,1.2,2.1c0.8,0,1.2-0.6,1.2-2.1S201.3,78.6,200.6,78.6z"/>
	<path class="st2" d="M205.6,83.7c-1,0-1.5-0.5-1.5-1.7v-3.2h-0.7v-0.6l0.7-0.1l0.1-1.6h0.8V78h1.3l-0.1,0.8H205v3.1
		c0,0.8,0.2,1,0.7,1c0.3,0,0.5-0.1,0.6-0.2l0.1,0.8C206.4,83.5,206.1,83.7,205.6,83.7z"/>
	<path class="st2" d="M209.4,83.7c-1.4,0-2.3-0.9-2.3-3c0-2,1-2.9,2.1-2.9s1.7,0.7,1.7,2c0,0.5,0,0.8-0.1,1.1H208
		c0.1,1.3,0.6,1.9,1.5,1.9c0.7,0,1.1-0.4,1.2-0.5l0.4,0.7C210.9,83.2,210.5,83.7,209.4,83.7z M208,80.2h2c0-0.1,0-0.2,0-0.4
		c0-0.8-0.3-1.2-0.9-1.2C208.5,78.6,208.1,79.2,208,80.2z"/>
	<path class="st2" d="M215.3,79c-0.1-0.1-0.4-0.4-1-0.4c-0.8,0-1.4,0.6-1.4,2.1c0,1.7,0.6,2.2,1.4,2.2c0.6,0,0.9-0.3,1-0.4l0.4,0.7
		c-0.2,0.2-0.6,0.6-1.5,0.6c-1.3,0-2.3-0.8-2.3-3s1.2-2.9,2.4-2.9c0.9,0,1.3,0.4,1.4,0.6L215.3,79z"/>
	<path class="st2" d="M218.4,83.7c-1,0-1.5-0.5-1.5-1.7v-3.2h-0.7v-0.6L217,78l0.1-1.6h0.8V78h1.3l-0.1,0.8h-1.2v3.1
		c0,0.8,0.2,1,0.7,1c0.3,0,0.5-0.1,0.6-0.2l0.1,0.8C219.2,83.5,218.9,83.7,218.4,83.7z"/>
	<path class="st2" d="M220,75.9c0-0.4,0.3-0.7,0.6-0.7c0.4,0,0.6,0.3,0.6,0.7c0,0.4-0.3,0.7-0.6,0.7S220,76.3,220,75.9z M221.2,83.6
		h-0.9V78h0.9V83.6z"/>
	<path class="st2" d="M224.6,77.8c1.2,0,2.2,0.9,2.2,3s-1,3-2.3,3c-1.2,0-2.2-0.8-2.2-3C222.4,78.7,223.4,77.8,224.6,77.8z
		 M224.6,78.6c-0.8,0-1.2,0.7-1.2,2.1s0.5,2.1,1.2,2.1c0.8,0,1.2-0.6,1.2-2.1S225.3,78.6,224.6,78.6z"/>
	<path class="st2" d="M228.9,79.2v4.3H228V78h0.9v0.6l0,0c0.1-0.2,0.6-0.8,1.5-0.8c1,0,1.6,0.6,1.6,2.1v3.7h-0.9V80
		c0-0.9-0.3-1.3-1-1.3C229.5,78.6,229.1,79,228.9,79.2z"/>
</g>
</svg>
