<?xml version="1.0" encoding="utf-8"?>
<!-- Generator: Adobe Illustrator 26.5.0, SVG Export Plug-In . SVG Version: 6.00 Build 0)  -->
<svg version="1.1" id="Layer_1" xmlns="http://www.w3.org/2000/svg" xmlns:xlink="http://www.w3.org/1999/xlink" x="0px" y="0px"
	 viewBox="0 0 394.1 393.4" style="enable-background:new 0 0 394.1 393.4;" xml:space="preserve">
<path d="M240.6,266c-24.4,0-50-3.9-75.5-11.6c-44.7-13.5-83.4-37.1-109-66.4c-25.9-29.6-35.4-61.7-26.8-90.2
	c8.6-28.5,34.2-49.9,72.2-60.3c37.6-10.3,82.9-8.5,127.6,5c44.6,13.5,83.4,37.1,109,66.4c25.9,29.6,35.4,61.7,26.8,90.2l0,0
	c-8.6,28.5-34.2,49.9-72.2,60.3C276.5,263.9,258.9,266,240.6,266L240.6,266z M153.6,35.3c-17.9,0-35.1,2.1-50.9,6.5
	c-36.5,10-61,30.3-69.2,57.3c-8.1,27,1,57.6,25.9,86.1c25.1,28.8,63.1,51.9,107,65.1c90.2,27.2,177.4,3.7,194.4-52.4l2.1,0.6
	l-2.1-0.6c17-56.1-42.7-124-132.9-151.2C202.7,39.1,177.5,35.3,153.6,35.3L153.6,35.3z"/>
<g>
	<path d="M80.8,92.2c0,9.5-6.1,15.5-16.8,15.5h-9.7v-31H64C74.7,76.8,80.8,82.7,80.8,92.2z M75.3,92.2c0-7-4-11.2-11.3-11.2h-4.4
		v22.5H64C71.3,103.5,75.3,99.3,75.3,92.2z"/>
	<path d="M73,118.2c0,3.5-2.9,6.4-6.4,6.4s-6.4-2.9-6.4-6.4s2.9-6.4,6.4-6.4S73,114.7,73,118.2z"/>
</g>
<g>
	<path d="M89,95.3h15.1c6.5,0,10.4,2.8,10.4,7.8c0,4.5-3.3,7.5-8.8,8v0.1c2.5,0.6,3.9,2.5,4.3,6.2c0.5,4.4,0.7,6.5,3.1,8.8v0.1h-5.9
		c-1.8-2-2-3.9-2.4-8c-0.4-3.6-2-5.2-5.3-5.2h-5.3v13.2H89L89,95.3L89,95.3z M101.7,109.3c4.6,0,7.2-1.9,7.2-5.2
		c0-3.1-2.2-4.8-6.1-4.8h-8.5v10H101.7L101.7,109.3z"/>
	<path d="M107,136.7c0,3.5-2.9,6.4-6.4,6.4s-6.4-2.9-6.4-6.4s2.9-6.4,6.4-6.4S107,133.2,107,136.7z"/>
</g>
<g>
	<path d="M198.2,75.4h5.4v31h-5.4V75.4z"/>
	<path d="M207.2,116.8c0,3.5-2.9,6.4-6.4,6.4s-6.4-2.9-6.4-6.4s2.9-6.4,6.4-6.4S207.2,113.3,207.2,116.8z"/>
</g>
<g>
	<path d="M220.4,75.4h5.8c3.1,8.8,6.3,17.6,9.4,26.8h0.1c3.1-9.3,6.2-18.1,9.4-26.8h5.7l-11.7,31h-6.9L220.4,75.4z"/>
	<circle cx="235.5" cy="116.8" r="6.4"/>
</g>
<g>
	<path d="M252.5,132.7h5.3v31h-5.4L252.5,132.7L252.5,132.7z"/>
	<path d="M261.6,174.2c0,3.5-2.9,6.4-6.4,6.4s-6.4-2.9-6.4-6.4s2.9-6.4,6.4-6.4C258.7,167.8,261.6,170.7,261.6,174.2z"/>
</g>
<g>
	<path d="M272.4,128.6h7.4c5,8.5,10.1,16.9,15.4,26.3l0.1,0c-0.2-9.4-0.2-17.9-0.2-26.3h5v31h-7c-5.2-8.7-10.4-17.4-15.8-27.1
		l-0.1,0c0.2,9.7,0.2,18.4,0.2,27h-5V128.6z"/>
	<path d="M292.7,170.1c0,3.5-2.9,6.4-6.4,6.4s-6.4-2.9-6.4-6.4s2.9-6.4,6.4-6.4S292.7,166.5,292.7,170.1z"/>
</g>
<g>
	<path d="M204.7,201.2h-10.1v26.6h-5.4v-26.6h-10.1v-4.3h25.6L204.7,201.2L204.7,201.2z"/>
	<path d="M198.3,238.3c0,3.5-2.9,6.4-6.4,6.4s-6.4-2.9-6.4-6.4s2.9-6.4,6.4-6.4S198.3,234.8,198.3,238.3z"/>
</g>
<g>
	<path d="M205.4,207.9h5.4V221h15.5v-13.1h5.4v31h-5.4v-13.5h-15.5v13.5h-5.4V207.9z"/>
	<circle cx="218.5" cy="249.4" r="6.4"/>
</g>
<g>
	<path d="M266.7,212.8v8.9h15.6v4h-15.6v9.4h13.8v4.4h-19v-31h21.6v4.4H266.7L266.7,212.8z"/>
	<path d="M277.7,249.9c0,3.5-2.9,6.4-6.4,6.4s-6.4-2.9-6.4-6.4s2.9-6.4,6.4-6.4S277.7,246.4,277.7,249.9L277.7,249.9z"/>
</g>
<g>
	<path d="M327.2,183.1h16.2v18.1h-4.7l-0.1-8.5h-0.1c-1.3,5.8-5.5,9-11.3,9c-8.1,0-13.5-6.4-13.5-15.8s6-16.1,15.4-16.1
		c7.2,0,12.6,3.8,14.3,10.1h-6.1c-1.2-3.7-4.4-5.9-8.5-5.9c-6,0-9.5,4.4-9.5,11.4c0,7.3,3.8,11.9,9.8,11.9c5.4,0,8.7-3.8,9.3-10.6
		h-11.2V183.1L327.2,183.1z"/>
	<path d="M335.5,211.7c0,3.5-2.9,6.4-6.4,6.4s-6.4-2.9-6.4-6.4s2.9-6.4,6.4-6.4S335.5,208.2,335.5,211.7z"/>
</g>
<g>
	<path d="M218.9,324.5h-13.8L202,333h-5.5l12-31h7.1l12,31H222L218.9,324.5L218.9,324.5z M212,305.3c-1.8,5.2-3.7,10.1-5.5,15h11.1
		C215.7,315.4,213.9,310.5,212,305.3L212,305.3L212,305.3z"/>
	<path d="M218.4,343.5c0,3.5-2.9,6.4-6.4,6.4s-6.4-2.9-6.4-6.4s2.9-6.4,6.4-6.4S218.4,339.9,218.4,343.5z"/>
</g>
<g>
	<path d="M269.4,274.9h7.4c5,8.5,10.1,16.9,15.4,26.3l0.1,0c-0.2-9.4-0.2-17.9-0.2-26.3h5v31h-7c-5.2-8.7-10.4-17.4-15.8-27.1
		l-0.1,0c0.2,9.7,0.2,18.4,0.2,27h-5V274.9L269.4,274.9z"/>
	<circle cx="283.2" cy="316.3" r="6.4"/>
</g>
<g>
	<path d="M170.5,272.1h8.2c2.8,7,5.7,13.9,8.5,21.4h0.1c2.8-7.4,5.7-14.4,8.5-21.4h8.2v31h-5c0-8.8,0-17.7,0.2-27.5h-0.1
		c-4.1,9.8-8,18.6-11.9,27.5h-0.1c-3.9-8.8-7.8-17.7-11.9-27.5h-0.1c0.2,9.8,0.2,18.6,0.2,27.5h-5V272.1z"/>
	<path d="M193.7,313.6c0,3.5-2.9,6.4-6.4,6.4s-6.4-2.9-6.4-6.4s2.9-6.4,6.4-6.4S193.7,310.1,193.7,313.6z"/>
</g>
<g>
	<path d="M121.9,270.5v-19.3h5.5v19.2c0,5.1,3,7.8,7.5,7.8s7.4-2.7,7.4-7.8v-19.2h5.4v19.3c0,7.7-5.1,12.1-12.9,12.1
		S121.9,278.2,121.9,270.5L121.9,270.5z"/>
	<path d="M141.2,292.6c0,3.5-2.9,6.4-6.4,6.4s-6.4-2.9-6.4-6.4s2.9-6.4,6.4-6.4S141.2,289.1,141.2,292.6z"/>
</g>
<g>
	<path d="M71.1,266.4h5.3v13.1h15.5v-13.1h5.3v31h-5.3v-13.5H76.4v13.5h-5.3C71.1,297.4,71.1,266.4,71.1,266.4z"/>
	<path d="M90.6,307.9c0,3.5-2.9,6.4-6.4,6.4s-6.4-2.9-6.4-6.4s2.9-6.4,6.4-6.4S90.6,304.3,90.6,307.9z"/>
</g>
<path d="M180.2,362.4c-28.2,0-54.7-5.2-76.6-15.3c-29.1-13.4-46.7-33.7-49.3-57.3c-2.7-23.5,9.8-47.3,35.1-67
	c25-19.4,59.7-32.5,97.7-36.8c37.9-4.4,74.7,0.5,103.4,13.7c29.1,13.4,46.6,33.7,49.4,57.3l0,0c2.7,23.5-9.8,47.3-35.1,67
	c-25,19.4-59.7,32.5-97.6,36.8C198.1,361.9,189.1,362.4,180.2,362.4z M213.8,188.9c-8.6,0-17.3,0.5-26.2,1.5
	c-37.2,4.3-71.1,17-95.5,35.9c-24.1,18.7-36,41-33.4,63c2.5,22,19.2,41.1,46.8,53.8c28.1,12.9,64,17.6,101.2,13.4
	c76.4-8.8,134.2-53.2,128.9-99l0,0C330.9,217.1,278.5,188.9,213.8,188.9L213.8,188.9z"/>
</svg>
