<?xml version="1.0" encoding="utf-8"?>
<!-- Generator: Adobe Illustrator 27.0.1, SVG Export Plug-In . SVG Version: 6.00 Build 0)  -->
<svg version="1.1" id="Layer_1" xmlns="http://www.w3.org/2000/svg" xmlns:xlink="http://www.w3.org/1999/xlink" x="0px" y="0px"
	 viewBox="0 0 5384.8 80" style="enable-background:new 0 0 5384.8 80;" xml:space="preserve">
<style type="text/css">
	.st0{fill:none;stroke:#000000;stroke-width:2;stroke-dasharray:0,0,4,4;}
</style>
<line class="st0" x1="1" y1="16" x2="1" y2="64"/>
<line class="st0" x1="11" y1="5" x2="11" y2="75"/>
<line class="st0" x1="21" y1="16" x2="21" y2="64"/>
<line class="st0" x1="31" y1="30" x2="31" y2="50"/>
<line class="st0" x1="41" y1="11" x2="41" y2="69"/>
<line class="st0" x1="51" y1="0" x2="51" y2="80"/>
<line class="st0" x1="61" y1="11" x2="61" y2="69"/>
<line class="st0" x1="71" y1="16" x2="71" y2="64"/>
<line class="st0" x1="81" y1="5" x2="81" y2="75"/>
<line class="st0" x1="91" y1="16" x2="91" y2="64"/>
<line class="st0" x1="101" y1="30" x2="101" y2="50"/>
<line class="st0" x1="111" y1="11" x2="111" y2="69"/>
<line class="st0" x1="121" y1="0" x2="121" y2="80"/>
<line class="st0" x1="131" y1="11" x2="131" y2="69"/>
<line class="st0" x1="141" y1="16" x2="141" y2="64"/>
<line class="st0" x1="151" y1="5" x2="151" y2="75"/>
<line class="st0" x1="161" y1="16" x2="161" y2="64"/>
<line class="st0" x1="171" y1="30" x2="171" y2="50"/>
<line class="st0" x1="181" y1="11" x2="181" y2="69"/>
<line class="st0" x1="191" y1="0" x2="191" y2="80"/>
<line class="st0" x1="201" y1="11" x2="201" y2="69"/>
<line class="st0" x1="211" y1="16" x2="211" y2="64"/>
<line class="st0" x1="221" y1="5" x2="221" y2="75"/>
<line class="st0" x1="231" y1="16" x2="231" y2="64"/>
<line class="st0" x1="241" y1="30" x2="241" y2="50"/>
<line class="st0" x1="251" y1="11" x2="251" y2="69"/>
<line class="st0" x1="261" y1="0" x2="261" y2="80"/>
<line class="st0" x1="271" y1="11" x2="271" y2="69"/>
<line class="st0" x1="281" y1="16" x2="281" y2="64"/>
<line class="st0" x1="291" y1="5" x2="291" y2="75"/>
<line class="st0" x1="301" y1="16" x2="301" y2="64"/>
<line class="st0" x1="311" y1="30" x2="311" y2="50"/>
<line class="st0" x1="321" y1="11" x2="321" y2="69"/>
<line class="st0" x1="331" y1="0" x2="331" y2="80"/>
<line class="st0" x1="341" y1="11" x2="341" y2="69"/>
<line class="st0" x1="351" y1="16" x2="351" y2="64"/>
<line class="st0" x1="361" y1="5" x2="361" y2="75"/>
<line class="st0" x1="371" y1="16" x2="371" y2="64"/>
<line class="st0" x1="381" y1="30" x2="381" y2="50"/>
<line class="st0" x1="391" y1="11" x2="391" y2="69"/>
<line class="st0" x1="401" y1="0" x2="401" y2="80"/>
<line class="st0" x1="411" y1="11" x2="411" y2="69"/>
<line class="st0" x1="421" y1="16" x2="421" y2="64"/>
<line class="st0" x1="431" y1="5" x2="431" y2="75"/>
<line class="st0" x1="441" y1="16" x2="441" y2="64"/>
<line class="st0" x1="451" y1="30" x2="451" y2="50"/>
<line class="st0" x1="461" y1="11" x2="461" y2="69"/>
<line class="st0" x1="471" y1="0" x2="471" y2="80"/>
<line class="st0" x1="481" y1="11" x2="481" y2="69"/>
<line class="st0" x1="491" y1="16" x2="491" y2="64"/>
<line class="st0" x1="501" y1="5" x2="501" y2="75"/>
<line class="st0" x1="511" y1="16" x2="511" y2="64"/>
<line class="st0" x1="521" y1="30" x2="521" y2="50"/>
<line class="st0" x1="531" y1="11" x2="531" y2="69"/>
<line class="st0" x1="541" y1="0" x2="541" y2="80"/>
<line class="st0" x1="551" y1="11" x2="551" y2="69"/>
<line class="st0" x1="561" y1="16" x2="561" y2="64"/>
<line class="st0" x1="571" y1="5" x2="571" y2="75"/>
<line class="st0" x1="581" y1="16" x2="581" y2="64"/>
<line class="st0" x1="591" y1="30" x2="591" y2="50"/>
<line class="st0" x1="601" y1="11" x2="601" y2="69"/>
<line class="st0" x1="611" y1="0" x2="611" y2="80"/>
<line class="st0" x1="621" y1="11" x2="621" y2="69"/>
<line class="st0" x1="631" y1="16" x2="631" y2="64"/>
<line class="st0" x1="641" y1="5" x2="641" y2="75"/>
<line class="st0" x1="651" y1="16" x2="651" y2="64"/>
<line class="st0" x1="661" y1="30" x2="661" y2="50"/>
<line class="st0" x1="671" y1="11" x2="671" y2="69"/>
<line class="st0" x1="681" y1="0" x2="681" y2="80"/>
<line class="st0" x1="691" y1="11" x2="691" y2="69"/>
<line class="st0" x1="701" y1="16" x2="701" y2="64"/>
<line class="st0" x1="711" y1="5" x2="711" y2="75"/>
<line class="st0" x1="721" y1="16" x2="721" y2="64"/>
<line class="st0" x1="731" y1="30" x2="731" y2="50"/>
<line class="st0" x1="741" y1="11" x2="741" y2="69"/>
<line class="st0" x1="751" y1="0" x2="751" y2="80"/>
<line class="st0" x1="761" y1="11" x2="761" y2="69"/>
<line class="st0" x1="771" y1="16" x2="771" y2="64"/>
<line class="st0" x1="781" y1="5" x2="781" y2="75"/>
<line class="st0" x1="791" y1="16" x2="791" y2="64"/>
<line class="st0" x1="801" y1="30" x2="801" y2="50"/>
<line class="st0" x1="811" y1="11" x2="811" y2="69"/>
<line class="st0" x1="821" y1="0" x2="821" y2="80"/>
<line class="st0" x1="831" y1="11" x2="831" y2="69"/>
<line class="st0" x1="841" y1="16" x2="841" y2="64"/>
<line class="st0" x1="851" y1="5" x2="851" y2="75"/>
<line class="st0" x1="861" y1="16" x2="861" y2="64"/>
<line class="st0" x1="871" y1="30" x2="871" y2="50"/>
<line class="st0" x1="881" y1="11" x2="881" y2="69"/>
<line class="st0" x1="891" y1="0" x2="891" y2="80"/>
<line class="st0" x1="901" y1="11" x2="901" y2="69"/>
<line class="st0" x1="911" y1="16" x2="911" y2="64"/>
<line class="st0" x1="921" y1="5" x2="921" y2="75"/>
<line class="st0" x1="931" y1="16" x2="931" y2="64"/>
<line class="st0" x1="941" y1="30" x2="941" y2="50"/>
<line class="st0" x1="951" y1="11" x2="951" y2="69"/>
<line class="st0" x1="961" y1="0" x2="961" y2="80"/>
<line class="st0" x1="971" y1="11" x2="971" y2="69"/>
<line class="st0" x1="981" y1="16" x2="981" y2="64"/>
<line class="st0" x1="991" y1="5" x2="991" y2="75"/>
<line class="st0" x1="1001" y1="16" x2="1001" y2="64"/>
<line class="st0" x1="1011" y1="30" x2="1011" y2="50"/>
<line class="st0" x1="1021" y1="11" x2="1021" y2="69"/>
<line class="st0" x1="1031" y1="0" x2="1031" y2="80"/>
<line class="st0" x1="1041" y1="11" x2="1041" y2="69"/>
<line class="st0" x1="1051" y1="16" x2="1051" y2="64"/>
<line class="st0" x1="1061" y1="5" x2="1061" y2="75"/>
<line class="st0" x1="1071" y1="16" x2="1071" y2="64"/>
<line class="st0" x1="1081" y1="30" x2="1081" y2="50"/>
<line class="st0" x1="1091" y1="11" x2="1091" y2="69"/>
<line class="st0" x1="1101" y1="0" x2="1101" y2="80"/>
<line class="st0" x1="1111" y1="11" x2="1111" y2="69"/>
<line class="st0" x1="1111" y1="11" x2="1111" y2="69"/>
<line class="st0" x1="1121" y1="0" x2="1121" y2="80"/>
<line class="st0" x1="1131" y1="11" x2="1131" y2="69"/>
<line class="st0" x1="1141" y1="16" x2="1141" y2="64"/>
<line class="st0" x1="1151" y1="5" x2="1151" y2="75"/>
<line class="st0" x1="1161" y1="16" x2="1161" y2="64"/>
<line class="st0" x1="1171" y1="30" x2="1171" y2="50"/>
<line class="st0" x1="1181" y1="11" x2="1181" y2="69"/>
<line class="st0" x1="1191" y1="0" x2="1191" y2="80"/>
<line class="st0" x1="1201" y1="11" x2="1201" y2="69"/>
<line class="st0" x1="1211" y1="16" x2="1211" y2="64"/>
<line class="st0" x1="1221" y1="5" x2="1221" y2="75"/>
<line class="st0" x1="1231" y1="16" x2="1231" y2="64"/>
<line class="st0" x1="1241" y1="30" x2="1241" y2="50"/>
<line class="st0" x1="1251" y1="11" x2="1251" y2="69"/>
<line class="st0" x1="1261" y1="0" x2="1261" y2="80"/>
<line class="st0" x1="1271" y1="11" x2="1271" y2="69"/>
<line class="st0" x1="1281" y1="16" x2="1281" y2="64"/>
<line class="st0" x1="1291" y1="5" x2="1291" y2="75"/>
<line class="st0" x1="1301" y1="16" x2="1301" y2="64"/>
<line class="st0" x1="1311" y1="30" x2="1311" y2="50"/>
<line class="st0" x1="1321" y1="11" x2="1321" y2="69"/>
<line class="st0" x1="1331" y1="0" x2="1331" y2="80"/>
<line class="st0" x1="1341" y1="11" x2="1341" y2="69"/>
<line class="st0" x1="1351" y1="16" x2="1351" y2="64"/>
<line class="st0" x1="1361" y1="5" x2="1361" y2="75"/>
<line class="st0" x1="1371" y1="16" x2="1371" y2="64"/>
<line class="st0" x1="1381" y1="30" x2="1381" y2="50"/>
<line class="st0" x1="1391" y1="11" x2="1391" y2="69"/>
<line class="st0" x1="1401" y1="0" x2="1401" y2="80"/>
<line class="st0" x1="1411" y1="11" x2="1411" y2="69"/>
<line class="st0" x1="1421" y1="16" x2="1421" y2="64"/>
<line class="st0" x1="1431" y1="5" x2="1431" y2="75"/>
<line class="st0" x1="1441" y1="16" x2="1441" y2="64"/>
<line class="st0" x1="1451" y1="30" x2="1451" y2="50"/>
<line class="st0" x1="1461" y1="11" x2="1461" y2="69"/>
<line class="st0" x1="1471" y1="0" x2="1471" y2="80"/>
<line class="st0" x1="1481" y1="11" x2="1481" y2="69"/>
<line class="st0" x1="1491" y1="16" x2="1491" y2="64"/>
<line class="st0" x1="1501" y1="5" x2="1501" y2="75"/>
<line class="st0" x1="1511" y1="16" x2="1511" y2="64"/>
<line class="st0" x1="1521" y1="30" x2="1521" y2="50"/>
<line class="st0" x1="1531" y1="11" x2="1531" y2="69"/>
<line class="st0" x1="1541" y1="0" x2="1541" y2="80"/>
<line class="st0" x1="1551" y1="11" x2="1551" y2="69"/>
<line class="st0" x1="1561" y1="16" x2="1561" y2="64"/>
<line class="st0" x1="1571" y1="5" x2="1571" y2="75"/>
<line class="st0" x1="1581" y1="16" x2="1581" y2="64"/>
<line class="st0" x1="1591" y1="30" x2="1591" y2="50"/>
<line class="st0" x1="1601" y1="11" x2="1601" y2="69"/>
<line class="st0" x1="1611" y1="0" x2="1611" y2="80"/>
<line class="st0" x1="1621" y1="11" x2="1621" y2="69"/>
<line class="st0" x1="1631" y1="16" x2="1631" y2="64"/>
<line class="st0" x1="1641" y1="5" x2="1641" y2="75"/>
<line class="st0" x1="1651" y1="16" x2="1651" y2="64"/>
<line class="st0" x1="1661" y1="30" x2="1661" y2="50"/>
<line class="st0" x1="1671" y1="11" x2="1671" y2="69"/>
<line class="st0" x1="1681" y1="0" x2="1681" y2="80"/>
<line class="st0" x1="1691" y1="11" x2="1691" y2="69"/>
<line class="st0" x1="1691" y1="11" x2="1691" y2="69"/>
<line class="st0" x1="1701" y1="0" x2="1701" y2="80"/>
<line class="st0" x1="1711" y1="11" x2="1711" y2="69"/>
<line class="st0" x1="1721" y1="16" x2="1721" y2="64"/>
<line class="st0" x1="1731" y1="5" x2="1731" y2="75"/>
<line class="st0" x1="1741" y1="16" x2="1741" y2="64"/>
<line class="st0" x1="1751" y1="30" x2="1751" y2="50"/>
<line class="st0" x1="1761" y1="11" x2="1761" y2="69"/>
<line class="st0" x1="1771" y1="0" x2="1771" y2="80"/>
<line class="st0" x1="1781" y1="11" x2="1781" y2="69"/>
<line class="st0" x1="1791" y1="16" x2="1791" y2="64"/>
<line class="st0" x1="1801" y1="5" x2="1801" y2="75"/>
<line class="st0" x1="1811" y1="16" x2="1811" y2="64"/>
<line class="st0" x1="1821" y1="30" x2="1821" y2="50"/>
<line class="st0" x1="1831" y1="11" x2="1831" y2="69"/>
<line class="st0" x1="1841" y1="0" x2="1841" y2="80"/>
<line class="st0" x1="1851" y1="11" x2="1851" y2="69"/>
<line class="st0" x1="1861" y1="16" x2="1861" y2="64"/>
<line class="st0" x1="1871" y1="5" x2="1871" y2="75"/>
<line class="st0" x1="1881" y1="16" x2="1881" y2="64"/>
<line class="st0" x1="1891" y1="30" x2="1891" y2="50"/>
<line class="st0" x1="1901" y1="11" x2="1901" y2="69"/>
<line class="st0" x1="1911" y1="0" x2="1911" y2="80"/>
<line class="st0" x1="1921" y1="11" x2="1921" y2="69"/>
<line class="st0" x1="1931" y1="16" x2="1931" y2="64"/>
<line class="st0" x1="1941" y1="5" x2="1941" y2="75"/>
<line class="st0" x1="1951" y1="16" x2="1951" y2="64"/>
<line class="st0" x1="1961" y1="30" x2="1961" y2="50"/>
<line class="st0" x1="1971" y1="11" x2="1971" y2="69"/>
<line class="st0" x1="1981.3" y1="0" x2="1981.3" y2="80"/>
<line class="st0" x1="1991.3" y1="11" x2="1991.3" y2="69"/>
<line class="st0" x1="2001.3" y1="16" x2="2001.3" y2="64"/>
<line class="st0" x1="2011.3" y1="5" x2="2011.3" y2="75"/>
<line class="st0" x1="2021.3" y1="16" x2="2021.3" y2="64"/>
<line class="st0" x1="2031.3" y1="30" x2="2031.3" y2="50"/>
<line class="st0" x1="2041.3" y1="11" x2="2041.3" y2="69"/>
<line class="st0" x1="2051.3" y1="0" x2="2051.3" y2="80"/>
<line class="st0" x1="2061.3" y1="11" x2="2061.3" y2="69"/>
<line class="st0" x1="2071.3" y1="16" x2="2071.3" y2="64"/>
<line class="st0" x1="2081.3" y1="5" x2="2081.3" y2="75"/>
<line class="st0" x1="2091.3" y1="16" x2="2091.3" y2="64"/>
<line class="st0" x1="2101.3" y1="30" x2="2101.3" y2="50"/>
<line class="st0" x1="2111.3" y1="11" x2="2111.3" y2="69"/>
<line class="st0" x1="2121.3" y1="0" x2="2121.3" y2="80"/>
<line class="st0" x1="2131.3" y1="11" x2="2131.3" y2="69"/>
<line class="st0" x1="2131.3" y1="11" x2="2131.3" y2="69"/>
<line class="st0" x1="2141.3" y1="0" x2="2141.3" y2="80"/>
<line class="st0" x1="2151.3" y1="11" x2="2151.3" y2="69"/>
<line class="st0" x1="2161.3" y1="16" x2="2161.3" y2="64"/>
<line class="st0" x1="2171.3" y1="5" x2="2171.3" y2="75"/>
<line class="st0" x1="2181.3" y1="16" x2="2181.3" y2="64"/>
<line class="st0" x1="2191.3" y1="30" x2="2191.3" y2="50"/>
<line class="st0" x1="2201.3" y1="11" x2="2201.3" y2="69"/>
<line class="st0" x1="2211.3" y1="0" x2="2211.3" y2="80"/>
<line class="st0" x1="2221.3" y1="11" x2="2221.3" y2="69"/>
<line class="st0" x1="2231.3" y1="16" x2="2231.3" y2="64"/>
<line class="st0" x1="2241.3" y1="5" x2="2241.3" y2="75"/>
<line class="st0" x1="2251.3" y1="16" x2="2251.3" y2="64"/>
<line class="st0" x1="2261.3" y1="30" x2="2261.3" y2="50"/>
<line class="st0" x1="2271.3" y1="11" x2="2271.3" y2="69"/>
<line class="st0" x1="2281.3" y1="0" x2="2281.3" y2="80"/>
<line class="st0" x1="2291.3" y1="11" x2="2291.3" y2="69"/>
<line class="st0" x1="2301.3" y1="16" x2="2301.3" y2="64"/>
<line class="st0" x1="2311.3" y1="5" x2="2311.3" y2="75"/>
<line class="st0" x1="2321.3" y1="16" x2="2321.3" y2="64"/>
<line class="st0" x1="2331.3" y1="30" x2="2331.3" y2="50"/>
<line class="st0" x1="2341.3" y1="11" x2="2341.3" y2="69"/>
<line class="st0" x1="2351.3" y1="0" x2="2351.3" y2="80"/>
<line class="st0" x1="2361.3" y1="11" x2="2361.3" y2="69"/>
<line class="st0" x1="2371.3" y1="16" x2="2371.3" y2="64"/>
<line class="st0" x1="2381.3" y1="5" x2="2381.3" y2="75"/>
<line class="st0" x1="2391.3" y1="16" x2="2391.3" y2="64"/>
<line class="st0" x1="2401.3" y1="30" x2="2401.3" y2="50"/>
<line class="st0" x1="2411.3" y1="11" x2="2411.3" y2="69"/>
<line class="st0" x1="2420" y1="0" x2="2420" y2="80"/>
<line class="st0" x1="2430" y1="11" x2="2430" y2="69"/>
<line class="st0" x1="2440" y1="16" x2="2440" y2="64"/>
<line class="st0" x1="2450" y1="5" x2="2450" y2="75"/>
<line class="st0" x1="2460" y1="16" x2="2460" y2="64"/>
<line class="st0" x1="2470" y1="30" x2="2470" y2="50"/>
<line class="st0" x1="2480" y1="11" x2="2480" y2="69"/>
<line class="st0" x1="2490" y1="0" x2="2490" y2="80"/>
<line class="st0" x1="2500" y1="11" x2="2500" y2="69"/>
<line class="st0" x1="2510" y1="16" x2="2510" y2="64"/>
<line class="st0" x1="2520" y1="5" x2="2520" y2="75"/>
<line class="st0" x1="2530" y1="16" x2="2530" y2="64"/>
<line class="st0" x1="2540" y1="30" x2="2540" y2="50"/>
<line class="st0" x1="2550" y1="11" x2="2550" y2="69"/>
<line class="st0" x1="2560" y1="0" x2="2560" y2="80"/>
<line class="st0" x1="2570" y1="11" x2="2570" y2="69"/>
<line class="st0" x1="2580" y1="16" x2="2580" y2="64"/>
<line class="st0" x1="2590" y1="5" x2="2590" y2="75"/>
<line class="st0" x1="2600" y1="16" x2="2600" y2="64"/>
<line class="st0" x1="2610" y1="30" x2="2610" y2="50"/>
<line class="st0" x1="2620" y1="11" x2="2620" y2="69"/>
<line class="st0" x1="2630" y1="0" x2="2630" y2="80"/>
<line class="st0" x1="2640" y1="11" x2="2640" y2="69"/>
<line class="st0" x1="2650" y1="16" x2="2650" y2="64"/>
<line class="st0" x1="2660" y1="5" x2="2660" y2="75"/>
<line class="st0" x1="2670" y1="16" x2="2670" y2="64"/>
<line class="st0" x1="2680" y1="30" x2="2680" y2="50"/>
<line class="st0" x1="2690" y1="11" x2="2690" y2="69"/>
<line class="st0" x1="2700" y1="0" x2="2700" y2="80"/>
<line class="st0" x1="2710" y1="11" x2="2710" y2="69"/>
<line class="st0" x1="2720" y1="16" x2="2720" y2="64"/>
<line class="st0" x1="2730" y1="5" x2="2730" y2="75"/>
<line class="st0" x1="2740" y1="16" x2="2740" y2="64"/>
<line class="st0" x1="2750" y1="30" x2="2750" y2="50"/>
<line class="st0" x1="2760" y1="11" x2="2760" y2="69"/>
<line class="st0" x1="2770" y1="0" x2="2770" y2="80"/>
<line class="st0" x1="2780" y1="11" x2="2780" y2="69"/>
<line class="st0" x1="2790" y1="16" x2="2790" y2="64"/>
<line class="st0" x1="2800" y1="5" x2="2800" y2="75"/>
<line class="st0" x1="2810" y1="16" x2="2810" y2="64"/>
<line class="st0" x1="2820" y1="30" x2="2820" y2="50"/>
<line class="st0" x1="2830" y1="11" x2="2830" y2="69"/>
<line class="st0" x1="2840" y1="0" x2="2840" y2="80"/>
<line class="st0" x1="2850" y1="11" x2="2850" y2="69"/>
<line class="st0" x1="2850" y1="11" x2="2850" y2="69"/>
<line class="st0" x1="2860" y1="0" x2="2860" y2="80"/>
<line class="st0" x1="2870" y1="11" x2="2870" y2="69"/>
<line class="st0" x1="2880" y1="16" x2="2880" y2="64"/>
<line class="st0" x1="2890" y1="5" x2="2890" y2="75"/>
<line class="st0" x1="2900" y1="16" x2="2900" y2="64"/>
<line class="st0" x1="2910" y1="30" x2="2910" y2="50"/>
<line class="st0" x1="2920" y1="11" x2="2920" y2="69"/>
<line class="st0" x1="2930" y1="0" x2="2930" y2="80"/>
<line class="st0" x1="2940" y1="11" x2="2940" y2="69"/>
<line class="st0" x1="2950" y1="16" x2="2950" y2="64"/>
<line class="st0" x1="2960" y1="5" x2="2960" y2="75"/>
<line class="st0" x1="2970" y1="16" x2="2970" y2="64"/>
<line class="st0" x1="2980" y1="30" x2="2980" y2="50"/>
<line class="st0" x1="2990" y1="11" x2="2990" y2="69"/>
<line class="st0" x1="3000" y1="0" x2="3000" y2="80"/>
<line class="st0" x1="3010" y1="11" x2="3010" y2="69"/>
<line class="st0" x1="3020" y1="16" x2="3020" y2="64"/>
<line class="st0" x1="3030" y1="5" x2="3030" y2="75"/>
<line class="st0" x1="3040" y1="16" x2="3040" y2="64"/>
<line class="st0" x1="3050" y1="30" x2="3050" y2="50"/>
<line class="st0" x1="3060" y1="11" x2="3060" y2="69"/>
<line class="st0" x1="3070" y1="0" x2="3070" y2="80"/>
<line class="st0" x1="3080" y1="11" x2="3080" y2="69"/>
<line class="st0" x1="3090" y1="16" x2="3090" y2="64"/>
<line class="st0" x1="3100" y1="5" x2="3100" y2="75"/>
<line class="st0" x1="3110" y1="16" x2="3110" y2="64"/>
<line class="st0" x1="3120" y1="30" x2="3120" y2="50"/>
<line class="st0" x1="3130" y1="11" x2="3130" y2="69"/>
<line class="st0" x1="3140.3" y1="0" x2="3140.3" y2="80"/>
<line class="st0" x1="3150.3" y1="11" x2="3150.3" y2="69"/>
<line class="st0" x1="3160.3" y1="16" x2="3160.3" y2="64"/>
<line class="st0" x1="3170.3" y1="5" x2="3170.3" y2="75"/>
<line class="st0" x1="3180.3" y1="16" x2="3180.3" y2="64"/>
<line class="st0" x1="3190.3" y1="30" x2="3190.3" y2="50"/>
<line class="st0" x1="3200.3" y1="11" x2="3200.3" y2="69"/>
<line class="st0" x1="3210.3" y1="0" x2="3210.3" y2="80"/>
<line class="st0" x1="3220.3" y1="11" x2="3220.3" y2="69"/>
<line class="st0" x1="3230.3" y1="16" x2="3230.3" y2="64"/>
<line class="st0" x1="3240.3" y1="5" x2="3240.3" y2="75"/>
<line class="st0" x1="3250.3" y1="16" x2="3250.3" y2="64"/>
<line class="st0" x1="3260.3" y1="30" x2="3260.3" y2="50"/>
<line class="st0" x1="3270.3" y1="11" x2="3270.3" y2="69"/>
<line class="st0" x1="3280.3" y1="0" x2="3280.3" y2="80"/>
<line class="st0" x1="3290.3" y1="11" x2="3290.3" y2="69"/>
<line class="st0" x1="3290.3" y1="11" x2="3290.3" y2="69"/>
<line class="st0" x1="3300.3" y1="0" x2="3300.3" y2="80"/>
<line class="st0" x1="3310.3" y1="11" x2="3310.3" y2="69"/>
<line class="st0" x1="3320.3" y1="16" x2="3320.3" y2="64"/>
<line class="st0" x1="3330.3" y1="5" x2="3330.3" y2="75"/>
<line class="st0" x1="3340.3" y1="16" x2="3340.3" y2="64"/>
<line class="st0" x1="3350.3" y1="30" x2="3350.3" y2="50"/>
<line class="st0" x1="3360.3" y1="11" x2="3360.3" y2="69"/>
<line class="st0" x1="3370.3" y1="0" x2="3370.3" y2="80"/>
<line class="st0" x1="3380.3" y1="11" x2="3380.3" y2="69"/>
<line class="st0" x1="3390.3" y1="16" x2="3390.3" y2="64"/>
<line class="st0" x1="3400.3" y1="5" x2="3400.3" y2="75"/>
<line class="st0" x1="3410.3" y1="16" x2="3410.3" y2="64"/>
<line class="st0" x1="3420.3" y1="30" x2="3420.3" y2="50"/>
<line class="st0" x1="3430.3" y1="11" x2="3430.3" y2="69"/>
<line class="st0" x1="3440.3" y1="0" x2="3440.3" y2="80"/>
<line class="st0" x1="3450.3" y1="11" x2="3450.3" y2="69"/>
<line class="st0" x1="3460.3" y1="16" x2="3460.3" y2="64"/>
<line class="st0" x1="3470.3" y1="5" x2="3470.3" y2="75"/>
<line class="st0" x1="3480.3" y1="16" x2="3480.3" y2="64"/>
<line class="st0" x1="3490.3" y1="30" x2="3490.3" y2="50"/>
<line class="st0" x1="3500.3" y1="11" x2="3500.3" y2="69"/>
<line class="st0" x1="3510.3" y1="0" x2="3510.3" y2="80"/>
<line class="st0" x1="3520.3" y1="11" x2="3520.3" y2="69"/>
<line class="st0" x1="3530.3" y1="16" x2="3530.3" y2="64"/>
<line class="st0" x1="3540.3" y1="5" x2="3540.3" y2="75"/>
<line class="st0" x1="3550.3" y1="16" x2="3550.3" y2="64"/>
<line class="st0" x1="3560.3" y1="30" x2="3560.3" y2="50"/>
<line class="st0" x1="3570.3" y1="11" x2="3570.3" y2="69"/>
<line class="st0" x1="3579" y1="0" x2="3579" y2="80"/>
<line class="st0" x1="3589" y1="11" x2="3589" y2="69"/>
<line class="st0" x1="3599" y1="16" x2="3599" y2="64"/>
<line class="st0" x1="3609" y1="5" x2="3609" y2="75"/>
<line class="st0" x1="3619" y1="16" x2="3619" y2="64"/>
<line class="st0" x1="3629" y1="30" x2="3629" y2="50"/>
<line class="st0" x1="3639" y1="11" x2="3639" y2="69"/>
<line class="st0" x1="3649" y1="0" x2="3649" y2="80"/>
<line class="st0" x1="3659" y1="11" x2="3659" y2="69"/>
<line class="st0" x1="3669" y1="16" x2="3669" y2="64"/>
<line class="st0" x1="3679" y1="5" x2="3679" y2="75"/>
<line class="st0" x1="3689" y1="16" x2="3689" y2="64"/>
<line class="st0" x1="3699" y1="30" x2="3699" y2="50"/>
<line class="st0" x1="3709" y1="11" x2="3709" y2="69"/>
<line class="st0" x1="3719" y1="0" x2="3719" y2="80"/>
<line class="st0" x1="3729" y1="11" x2="3729" y2="69"/>
<line class="st0" x1="3739" y1="16" x2="3739" y2="64"/>
<line class="st0" x1="3749" y1="5" x2="3749" y2="75"/>
<line class="st0" x1="3759" y1="16" x2="3759" y2="64"/>
<line class="st0" x1="3769" y1="30" x2="3769" y2="50"/>
<line class="st0" x1="3779" y1="11" x2="3779" y2="69"/>
<line class="st0" x1="3789.3" y1="0" x2="3789.3" y2="80"/>
<line class="st0" x1="3799.3" y1="11" x2="3799.3" y2="69"/>
<line class="st0" x1="3809.3" y1="16" x2="3809.3" y2="64"/>
<line class="st0" x1="3819.3" y1="5" x2="3819.3" y2="75"/>
<line class="st0" x1="3829.3" y1="16" x2="3829.3" y2="64"/>
<line class="st0" x1="3839.3" y1="30" x2="3839.3" y2="50"/>
<line class="st0" x1="3849.3" y1="11" x2="3849.3" y2="69"/>
<line class="st0" x1="3859.3" y1="0" x2="3859.3" y2="80"/>
<line class="st0" x1="3869.3" y1="11" x2="3869.3" y2="69"/>
<line class="st0" x1="3879.3" y1="16" x2="3879.3" y2="64"/>
<line class="st0" x1="3889.3" y1="5" x2="3889.3" y2="75"/>
<line class="st0" x1="3899.3" y1="16" x2="3899.3" y2="64"/>
<line class="st0" x1="3909.3" y1="30" x2="3909.3" y2="50"/>
<line class="st0" x1="3919.3" y1="11" x2="3919.3" y2="69"/>
<line class="st0" x1="3929.3" y1="0" x2="3929.3" y2="80"/>
<line class="st0" x1="3939.3" y1="11" x2="3939.3" y2="69"/>
<line class="st0" x1="3939.3" y1="11" x2="3939.3" y2="69"/>
<line class="st0" x1="3949.3" y1="0" x2="3949.3" y2="80"/>
<line class="st0" x1="3959.3" y1="11" x2="3959.3" y2="69"/>
<line class="st0" x1="3969.3" y1="16" x2="3969.3" y2="64"/>
<line class="st0" x1="3979.3" y1="5" x2="3979.3" y2="75"/>
<line class="st0" x1="3989.3" y1="16" x2="3989.3" y2="64"/>
<line class="st0" x1="3999.3" y1="30" x2="3999.3" y2="50"/>
<line class="st0" x1="4009.3" y1="11" x2="4009.3" y2="69"/>
<line class="st0" x1="4019.3" y1="0" x2="4019.3" y2="80"/>
<line class="st0" x1="4029.3" y1="11" x2="4029.3" y2="69"/>
<line class="st0" x1="4039.3" y1="16" x2="4039.3" y2="64"/>
<line class="st0" x1="4049.3" y1="5" x2="4049.3" y2="75"/>
<line class="st0" x1="4059.3" y1="16" x2="4059.3" y2="64"/>
<line class="st0" x1="4069.3" y1="30" x2="4069.3" y2="50"/>
<line class="st0" x1="4079.3" y1="11" x2="4079.3" y2="69"/>
<line class="st0" x1="4089.3" y1="0" x2="4089.3" y2="80"/>
<line class="st0" x1="4099.3" y1="11" x2="4099.3" y2="69"/>
<line class="st0" x1="4109.3" y1="16" x2="4109.3" y2="64"/>
<line class="st0" x1="4119.3" y1="5" x2="4119.3" y2="75"/>
<line class="st0" x1="4129.3" y1="16" x2="4129.3" y2="64"/>
<line class="st0" x1="4139.3" y1="30" x2="4139.3" y2="50"/>
<line class="st0" x1="4149.3" y1="11" x2="4149.3" y2="69"/>
<line class="st0" x1="4159.3" y1="0" x2="4159.3" y2="80"/>
<line class="st0" x1="4169.3" y1="11" x2="4169.3" y2="69"/>
<line class="st0" x1="4179.3" y1="16" x2="4179.3" y2="64"/>
<line class="st0" x1="4189.3" y1="5" x2="4189.3" y2="75"/>
<line class="st0" x1="4199.3" y1="16" x2="4199.3" y2="64"/>
<line class="st0" x1="4209.3" y1="30" x2="4209.3" y2="50"/>
<line class="st0" x1="4219.3" y1="11" x2="4219.3" y2="69"/>
<line class="st0" x1="4228" y1="0" x2="4228" y2="80"/>
<line class="st0" x1="4238" y1="11" x2="4238" y2="69"/>
<line class="st0" x1="4248" y1="16" x2="4248" y2="64"/>
<line class="st0" x1="4258" y1="5" x2="4258" y2="75"/>
<line class="st0" x1="4268" y1="16" x2="4268" y2="64"/>
<line class="st0" x1="4278" y1="30" x2="4278" y2="50"/>
<line class="st0" x1="4288" y1="11" x2="4288" y2="69"/>
<line class="st0" x1="4298" y1="0" x2="4298" y2="80"/>
<line class="st0" x1="4308" y1="11" x2="4308" y2="69"/>
<line class="st0" x1="4318" y1="16" x2="4318" y2="64"/>
<line class="st0" x1="4328" y1="5" x2="4328" y2="75"/>
<line class="st0" x1="4338" y1="16" x2="4338" y2="64"/>
<line class="st0" x1="4348" y1="30" x2="4348" y2="50"/>
<line class="st0" x1="4358" y1="11" x2="4358" y2="69"/>
<line class="st0" x1="4368" y1="0" x2="4368" y2="80"/>
<line class="st0" x1="4378" y1="11" x2="4378" y2="69"/>
<line class="st0" x1="4388" y1="16" x2="4388" y2="64"/>
<line class="st0" x1="4398" y1="5" x2="4398" y2="75"/>
<line class="st0" x1="4408" y1="16" x2="4408" y2="64"/>
<line class="st0" x1="4418" y1="30" x2="4418" y2="50"/>
<line class="st0" x1="4428" y1="11" x2="4428" y2="69"/>
<line class="st0" x1="4438" y1="0" x2="4438" y2="80"/>
<line class="st0" x1="4448" y1="11" x2="4448" y2="69"/>
<line class="st0" x1="4458" y1="16" x2="4458" y2="64"/>
<line class="st0" x1="4468" y1="5" x2="4468" y2="75"/>
<line class="st0" x1="4478" y1="16" x2="4478" y2="64"/>
<line class="st0" x1="4488" y1="30" x2="4488" y2="50"/>
<line class="st0" x1="4498" y1="11" x2="4498" y2="69"/>
<line class="st0" x1="4508" y1="0" x2="4508" y2="80"/>
<line class="st0" x1="4518" y1="11" x2="4518" y2="69"/>
<line class="st0" x1="4528" y1="16" x2="4528" y2="64"/>
<line class="st0" x1="4538" y1="5" x2="4538" y2="75"/>
<line class="st0" x1="4548" y1="16" x2="4548" y2="64"/>
<line class="st0" x1="4558" y1="30" x2="4558" y2="50"/>
<line class="st0" x1="4568" y1="11" x2="4568" y2="69"/>
<line class="st0" x1="4578" y1="0" x2="4578" y2="80"/>
<line class="st0" x1="4588" y1="11" x2="4588" y2="69"/>
<line class="st0" x1="4598" y1="16" x2="4598" y2="64"/>
<line class="st0" x1="4608" y1="5" x2="4608" y2="75"/>
<line class="st0" x1="4618" y1="16" x2="4618" y2="64"/>
<line class="st0" x1="4628" y1="30" x2="4628" y2="50"/>
<line class="st0" x1="4638" y1="11" x2="4638" y2="69"/>
<line class="st0" x1="4648" y1="0" x2="4648" y2="80"/>
<line class="st0" x1="4658" y1="11" x2="4658" y2="69"/>
<line class="st0" x1="4658" y1="11" x2="4658" y2="69"/>
<line class="st0" x1="4668" y1="0" x2="4668" y2="80"/>
<line class="st0" x1="4678" y1="11" x2="4678" y2="69"/>
<line class="st0" x1="4688" y1="16" x2="4688" y2="64"/>
<line class="st0" x1="4698" y1="5" x2="4698" y2="75"/>
<line class="st0" x1="4708" y1="16" x2="4708" y2="64"/>
<line class="st0" x1="4718" y1="30" x2="4718" y2="50"/>
<line class="st0" x1="4728" y1="11" x2="4728" y2="69"/>
<line class="st0" x1="4738" y1="0" x2="4738" y2="80"/>
<line class="st0" x1="4748" y1="11" x2="4748" y2="69"/>
<line class="st0" x1="4758" y1="16" x2="4758" y2="64"/>
<line class="st0" x1="4768" y1="5" x2="4768" y2="75"/>
<line class="st0" x1="4778" y1="16" x2="4778" y2="64"/>
<line class="st0" x1="4788" y1="30" x2="4788" y2="50"/>
<line class="st0" x1="4798" y1="11" x2="4798" y2="69"/>
<line class="st0" x1="4808" y1="0" x2="4808" y2="80"/>
<line class="st0" x1="4818" y1="11" x2="4818" y2="69"/>
<line class="st0" x1="4828" y1="16" x2="4828" y2="64"/>
<line class="st0" x1="4838" y1="5" x2="4838" y2="75"/>
<line class="st0" x1="4848" y1="16" x2="4848" y2="64"/>
<line class="st0" x1="4858" y1="30" x2="4858" y2="50"/>
<line class="st0" x1="4868" y1="11" x2="4868" y2="69"/>
<line class="st0" x1="4878" y1="0" x2="4878" y2="80"/>
<line class="st0" x1="4888" y1="11" x2="4888" y2="69"/>
<line class="st0" x1="4898" y1="16" x2="4898" y2="64"/>
<line class="st0" x1="4908" y1="5" x2="4908" y2="75"/>
<line class="st0" x1="4918" y1="16" x2="4918" y2="64"/>
<line class="st0" x1="4928" y1="30" x2="4928" y2="50"/>
<line class="st0" x1="4938" y1="11" x2="4938" y2="69"/>
<line class="st0" x1="4948.3" y1="0" x2="4948.3" y2="80"/>
<line class="st0" x1="4958.3" y1="11" x2="4958.3" y2="69"/>
<line class="st0" x1="4968.3" y1="16" x2="4968.3" y2="64"/>
<line class="st0" x1="4978.3" y1="5" x2="4978.3" y2="75"/>
<line class="st0" x1="4988.3" y1="16" x2="4988.3" y2="64"/>
<line class="st0" x1="4998.3" y1="30" x2="4998.3" y2="50"/>
<line class="st0" x1="5008.3" y1="11" x2="5008.3" y2="69"/>
<line class="st0" x1="5018.3" y1="0" x2="5018.3" y2="80"/>
<line class="st0" x1="5028.3" y1="11" x2="5028.3" y2="69"/>
<line class="st0" x1="5038.3" y1="16" x2="5038.3" y2="64"/>
<line class="st0" x1="5048.3" y1="5" x2="5048.3" y2="75"/>
<line class="st0" x1="5058.3" y1="16" x2="5058.3" y2="64"/>
<line class="st0" x1="5068.3" y1="30" x2="5068.3" y2="50"/>
<line class="st0" x1="5078.3" y1="11" x2="5078.3" y2="69"/>
<line class="st0" x1="5088.3" y1="0" x2="5088.3" y2="80"/>
<line class="st0" x1="5098.3" y1="11" x2="5098.3" y2="69"/>
<line class="st0" x1="5098.3" y1="11" x2="5098.3" y2="69"/>
<line class="st0" x1="5108.3" y1="0" x2="5108.3" y2="80"/>
<line class="st0" x1="5118.3" y1="11" x2="5118.3" y2="69"/>
<line class="st0" x1="5128.3" y1="16" x2="5128.3" y2="64"/>
<line class="st0" x1="5138.3" y1="5" x2="5138.3" y2="75"/>
<line class="st0" x1="5148.3" y1="16" x2="5148.3" y2="64"/>
<line class="st0" x1="5158.3" y1="30" x2="5158.3" y2="50"/>
<line class="st0" x1="5168.3" y1="11" x2="5168.3" y2="69"/>
<line class="st0" x1="5178.3" y1="0" x2="5178.3" y2="80"/>
<line class="st0" x1="5188.3" y1="11" x2="5188.3" y2="69"/>
<line class="st0" x1="5198.3" y1="16" x2="5198.3" y2="64"/>
<line class="st0" x1="5208.3" y1="5" x2="5208.3" y2="75"/>
<line class="st0" x1="5218.3" y1="16" x2="5218.3" y2="64"/>
<line class="st0" x1="5228.3" y1="30" x2="5228.3" y2="50"/>
<line class="st0" x1="5238.3" y1="11" x2="5238.3" y2="69"/>
<line class="st0" x1="5248.3" y1="0" x2="5248.3" y2="80"/>
<line class="st0" x1="5258.3" y1="11" x2="5258.3" y2="69"/>
<line class="st0" x1="5268.3" y1="16" x2="5268.3" y2="64"/>
<line class="st0" x1="5278.3" y1="5" x2="5278.3" y2="75"/>
<line class="st0" x1="5288.3" y1="16" x2="5288.3" y2="64"/>
<line class="st0" x1="5298.3" y1="30" x2="5298.3" y2="50"/>
<line class="st0" x1="5308.3" y1="11" x2="5308.3" y2="69"/>
<line class="st0" x1="5318.3" y1="0" x2="5318.3" y2="80"/>
<line class="st0" x1="5328.3" y1="11" x2="5328.3" y2="69"/>
<line class="st0" x1="5338.3" y1="16" x2="5338.3" y2="64"/>
<line class="st0" x1="5348.3" y1="5" x2="5348.3" y2="75"/>
<line class="st0" x1="5358.3" y1="16" x2="5358.3" y2="64"/>
<line class="st0" x1="5368.3" y1="30" x2="5368.3" y2="50"/>
<line class="st0" x1="5378.3" y1="11" x2="5378.3" y2="69"/>
</svg>
