<?xml version="1.0" encoding="utf-8"?>
<!-- Generator: Adobe Illustrator 27.0.1, SVG Export Plug-In . SVG Version: 6.00 Build 0)  -->
<svg version="1.1" id="Layer_1" xmlns="http://www.w3.org/2000/svg" xmlns:xlink="http://www.w3.org/1999/xlink" x="0px" y="0px"
	 viewBox="0 0 2420 80" style="enable-background:new 0 0 2420 80;" xml:space="preserve">
<style type="text/css">
	.st0{fill:none;stroke:#000000;stroke-width:2;stroke-dasharray:0,0,4,4;}
</style>
<line class="st0" x1="1" y1="16" x2="1" y2="64"/>
<line class="st0" x1="11" y1="5" x2="11" y2="75"/>
<line class="st0" x1="21" y1="16" x2="21" y2="64"/>
<line class="st0" x1="31" y1="30" x2="31" y2="50"/>
<line class="st0" x1="41" y1="11" x2="41" y2="69"/>
<line class="st0" x1="51" y1="0" x2="51" y2="80"/>
<line class="st0" x1="61" y1="11" x2="61" y2="69"/>
<line class="st0" x1="71" y1="16" x2="71" y2="64"/>
<line class="st0" x1="81" y1="5" x2="81" y2="75"/>
<line class="st0" x1="91" y1="16" x2="91" y2="64"/>
<line class="st0" x1="101" y1="30" x2="101" y2="50"/>
<line class="st0" x1="111" y1="11" x2="111" y2="69"/>
<line class="st0" x1="121" y1="0" x2="121" y2="80"/>
<line class="st0" x1="131" y1="11" x2="131" y2="69"/>
<line class="st0" x1="141" y1="16" x2="141" y2="64"/>
<line class="st0" x1="151" y1="5" x2="151" y2="75"/>
<line class="st0" x1="161" y1="16" x2="161" y2="64"/>
<line class="st0" x1="171" y1="30" x2="171" y2="50"/>
<line class="st0" x1="181" y1="11" x2="181" y2="69"/>
<line class="st0" x1="191" y1="0" x2="191" y2="80"/>
<line class="st0" x1="201" y1="11" x2="201" y2="69"/>
<line class="st0" x1="211" y1="16" x2="211" y2="64"/>
<line class="st0" x1="221" y1="5" x2="221" y2="75"/>
<line class="st0" x1="231" y1="16" x2="231" y2="64"/>
<line class="st0" x1="241" y1="30" x2="241" y2="50"/>
<line class="st0" x1="251" y1="11" x2="251" y2="69"/>
<line class="st0" x1="261" y1="0" x2="261" y2="80"/>
<line class="st0" x1="271" y1="11" x2="271" y2="69"/>
<line class="st0" x1="281" y1="16" x2="281" y2="64"/>
<line class="st0" x1="291" y1="5" x2="291" y2="75"/>
<line class="st0" x1="301" y1="16" x2="301" y2="64"/>
<line class="st0" x1="311" y1="30" x2="311" y2="50"/>
<line class="st0" x1="321" y1="11" x2="321" y2="69"/>
<line class="st0" x1="331" y1="0" x2="331" y2="80"/>
<line class="st0" x1="341" y1="11" x2="341" y2="69"/>
<line class="st0" x1="351" y1="16" x2="351" y2="64"/>
<line class="st0" x1="361" y1="5" x2="361" y2="75"/>
<line class="st0" x1="371" y1="16" x2="371" y2="64"/>
<line class="st0" x1="381" y1="30" x2="381" y2="50"/>
<line class="st0" x1="391" y1="11" x2="391" y2="69"/>
<line class="st0" x1="401" y1="0" x2="401" y2="80"/>
<line class="st0" x1="411" y1="11" x2="411" y2="69"/>
<line class="st0" x1="421" y1="16" x2="421" y2="64"/>
<line class="st0" x1="431" y1="5" x2="431" y2="75"/>
<line class="st0" x1="441" y1="16" x2="441" y2="64"/>
<line class="st0" x1="451" y1="30" x2="451" y2="50"/>
<line class="st0" x1="461" y1="11" x2="461" y2="69"/>
<line class="st0" x1="471" y1="0" x2="471" y2="80"/>
<line class="st0" x1="481" y1="11" x2="481" y2="69"/>
<line class="st0" x1="491" y1="16" x2="491" y2="64"/>
<line class="st0" x1="501" y1="5" x2="501" y2="75"/>
<line class="st0" x1="511" y1="16" x2="511" y2="64"/>
<line class="st0" x1="521" y1="30" x2="521" y2="50"/>
<line class="st0" x1="531" y1="11" x2="531" y2="69"/>
<line class="st0" x1="541" y1="0" x2="541" y2="80"/>
<line class="st0" x1="551" y1="11" x2="551" y2="69"/>
<line class="st0" x1="561" y1="16" x2="561" y2="64"/>
<line class="st0" x1="571" y1="5" x2="571" y2="75"/>
<line class="st0" x1="581" y1="16" x2="581" y2="64"/>
<line class="st0" x1="591" y1="30" x2="591" y2="50"/>
<line class="st0" x1="601" y1="11" x2="601" y2="69"/>
<line class="st0" x1="611" y1="0" x2="611" y2="80"/>
<line class="st0" x1="621" y1="11" x2="621" y2="69"/>
<line class="st0" x1="631" y1="16" x2="631" y2="64"/>
<line class="st0" x1="641" y1="5" x2="641" y2="75"/>
<line class="st0" x1="651" y1="16" x2="651" y2="64"/>
<line class="st0" x1="661" y1="30" x2="661" y2="50"/>
<line class="st0" x1="671" y1="11" x2="671" y2="69"/>
<line class="st0" x1="681" y1="0" x2="681" y2="80"/>
<line class="st0" x1="691" y1="11" x2="691" y2="69"/>
<line class="st0" x1="701" y1="16" x2="701" y2="64"/>
<line class="st0" x1="711" y1="5" x2="711" y2="75"/>
<line class="st0" x1="721" y1="16" x2="721" y2="64"/>
<line class="st0" x1="731" y1="30" x2="731" y2="50"/>
<line class="st0" x1="741" y1="11" x2="741" y2="69"/>
<line class="st0" x1="751" y1="0" x2="751" y2="80"/>
<line class="st0" x1="761" y1="11" x2="761" y2="69"/>
<line class="st0" x1="771" y1="16" x2="771" y2="64"/>
<line class="st0" x1="781" y1="5" x2="781" y2="75"/>
<line class="st0" x1="791" y1="16" x2="791" y2="64"/>
<line class="st0" x1="801" y1="30" x2="801" y2="50"/>
<line class="st0" x1="811" y1="11" x2="811" y2="69"/>
<line class="st0" x1="821" y1="0" x2="821" y2="80"/>
<line class="st0" x1="831" y1="11" x2="831" y2="69"/>
<line class="st0" x1="841" y1="16" x2="841" y2="64"/>
<line class="st0" x1="851" y1="5" x2="851" y2="75"/>
<line class="st0" x1="861" y1="16" x2="861" y2="64"/>
<line class="st0" x1="871" y1="30" x2="871" y2="50"/>
<line class="st0" x1="881" y1="11" x2="881" y2="69"/>
<line class="st0" x1="891" y1="0" x2="891" y2="80"/>
<line class="st0" x1="901" y1="11" x2="901" y2="69"/>
<line class="st0" x1="911" y1="16" x2="911" y2="64"/>
<line class="st0" x1="921" y1="5" x2="921" y2="75"/>
<line class="st0" x1="931" y1="16" x2="931" y2="64"/>
<line class="st0" x1="941" y1="30" x2="941" y2="50"/>
<line class="st0" x1="951" y1="11" x2="951" y2="69"/>
<line class="st0" x1="961" y1="0" x2="961" y2="80"/>
<line class="st0" x1="971" y1="11" x2="971" y2="69"/>
<line class="st0" x1="981" y1="16" x2="981" y2="64"/>
<line class="st0" x1="991" y1="5" x2="991" y2="75"/>
<line class="st0" x1="1001" y1="16" x2="1001" y2="64"/>
<line class="st0" x1="1011" y1="30" x2="1011" y2="50"/>
<line class="st0" x1="1021" y1="11" x2="1021" y2="69"/>
<line class="st0" x1="1031" y1="0" x2="1031" y2="80"/>
<line class="st0" x1="1041" y1="11" x2="1041" y2="69"/>
<line class="st0" x1="1051" y1="16" x2="1051" y2="64"/>
<line class="st0" x1="1061" y1="5" x2="1061" y2="75"/>
<line class="st0" x1="1071" y1="16" x2="1071" y2="64"/>
<line class="st0" x1="1081" y1="30" x2="1081" y2="50"/>
<line class="st0" x1="1091" y1="11" x2="1091" y2="69"/>
<line class="st0" x1="1101" y1="0" x2="1101" y2="80"/>
<line class="st0" x1="1111" y1="11" x2="1111" y2="69"/>
<line class="st0" x1="1111" y1="11" x2="1111" y2="69"/>
<line class="st0" x1="1121" y1="0" x2="1121" y2="80"/>
<line class="st0" x1="1131" y1="11" x2="1131" y2="69"/>
<line class="st0" x1="1141" y1="16" x2="1141" y2="64"/>
<line class="st0" x1="1151" y1="5" x2="1151" y2="75"/>
<line class="st0" x1="1161" y1="16" x2="1161" y2="64"/>
<line class="st0" x1="1171" y1="30" x2="1171" y2="50"/>
<line class="st0" x1="1181" y1="11" x2="1181" y2="69"/>
<line class="st0" x1="1191" y1="0" x2="1191" y2="80"/>
<line class="st0" x1="1201" y1="11" x2="1201" y2="69"/>
<line class="st0" x1="1211" y1="16" x2="1211" y2="64"/>
<line class="st0" x1="1221" y1="5" x2="1221" y2="75"/>
<line class="st0" x1="1231" y1="16" x2="1231" y2="64"/>
<line class="st0" x1="1241" y1="30" x2="1241" y2="50"/>
<line class="st0" x1="1251" y1="11" x2="1251" y2="69"/>
<line class="st0" x1="1261" y1="0" x2="1261" y2="80"/>
<line class="st0" x1="1271" y1="11" x2="1271" y2="69"/>
<line class="st0" x1="1281" y1="16" x2="1281" y2="64"/>
<line class="st0" x1="1291" y1="5" x2="1291" y2="75"/>
<line class="st0" x1="1301" y1="16" x2="1301" y2="64"/>
<line class="st0" x1="1311" y1="30" x2="1311" y2="50"/>
<line class="st0" x1="1321" y1="11" x2="1321" y2="69"/>
<line class="st0" x1="1331" y1="0" x2="1331" y2="80"/>
<line class="st0" x1="1341" y1="11" x2="1341" y2="69"/>
<line class="st0" x1="1351" y1="16" x2="1351" y2="64"/>
<line class="st0" x1="1361" y1="5" x2="1361" y2="75"/>
<line class="st0" x1="1371" y1="16" x2="1371" y2="64"/>
<line class="st0" x1="1381" y1="30" x2="1381" y2="50"/>
<line class="st0" x1="1391" y1="11" x2="1391" y2="69"/>
<line class="st0" x1="1401" y1="0" x2="1401" y2="80"/>
<line class="st0" x1="1411" y1="11" x2="1411" y2="69"/>
<line class="st0" x1="1421" y1="16" x2="1421" y2="64"/>
<line class="st0" x1="1431" y1="5" x2="1431" y2="75"/>
<line class="st0" x1="1441" y1="16" x2="1441" y2="64"/>
<line class="st0" x1="1451" y1="30" x2="1451" y2="50"/>
<line class="st0" x1="1461" y1="11" x2="1461" y2="69"/>
<line class="st0" x1="1471" y1="0" x2="1471" y2="80"/>
<line class="st0" x1="1481" y1="11" x2="1481" y2="69"/>
<line class="st0" x1="1491" y1="16" x2="1491" y2="64"/>
<line class="st0" x1="1501" y1="5" x2="1501" y2="75"/>
<line class="st0" x1="1511" y1="16" x2="1511" y2="64"/>
<line class="st0" x1="1521" y1="30" x2="1521" y2="50"/>
<line class="st0" x1="1531" y1="11" x2="1531" y2="69"/>
<line class="st0" x1="1541" y1="0" x2="1541" y2="80"/>
<line class="st0" x1="1551" y1="11" x2="1551" y2="69"/>
<line class="st0" x1="1561" y1="16" x2="1561" y2="64"/>
<line class="st0" x1="1571" y1="5" x2="1571" y2="75"/>
<line class="st0" x1="1581" y1="16" x2="1581" y2="64"/>
<line class="st0" x1="1591" y1="30" x2="1591" y2="50"/>
<line class="st0" x1="1601" y1="11" x2="1601" y2="69"/>
<line class="st0" x1="1611" y1="0" x2="1611" y2="80"/>
<line class="st0" x1="1621" y1="11" x2="1621" y2="69"/>
<line class="st0" x1="1631" y1="16" x2="1631" y2="64"/>
<line class="st0" x1="1641" y1="5" x2="1641" y2="75"/>
<line class="st0" x1="1651" y1="16" x2="1651" y2="64"/>
<line class="st0" x1="1661" y1="30" x2="1661" y2="50"/>
<line class="st0" x1="1671" y1="11" x2="1671" y2="69"/>
<line class="st0" x1="1681" y1="0" x2="1681" y2="80"/>
<line class="st0" x1="1691" y1="11" x2="1691" y2="69"/>
<line class="st0" x1="1691" y1="11" x2="1691" y2="69"/>
<line class="st0" x1="1701" y1="0" x2="1701" y2="80"/>
<line class="st0" x1="1711" y1="11" x2="1711" y2="69"/>
<line class="st0" x1="1721" y1="16" x2="1721" y2="64"/>
<line class="st0" x1="1731" y1="5" x2="1731" y2="75"/>
<line class="st0" x1="1741" y1="16" x2="1741" y2="64"/>
<line class="st0" x1="1751" y1="30" x2="1751" y2="50"/>
<line class="st0" x1="1761" y1="11" x2="1761" y2="69"/>
<line class="st0" x1="1771" y1="0" x2="1771" y2="80"/>
<line class="st0" x1="1781" y1="11" x2="1781" y2="69"/>
<line class="st0" x1="1791" y1="16" x2="1791" y2="64"/>
<line class="st0" x1="1801" y1="5" x2="1801" y2="75"/>
<line class="st0" x1="1811" y1="16" x2="1811" y2="64"/>
<line class="st0" x1="1821" y1="30" x2="1821" y2="50"/>
<line class="st0" x1="1831" y1="11" x2="1831" y2="69"/>
<line class="st0" x1="1841" y1="0" x2="1841" y2="80"/>
<line class="st0" x1="1851" y1="11" x2="1851" y2="69"/>
<line class="st0" x1="1861" y1="16" x2="1861" y2="64"/>
<line class="st0" x1="1871" y1="5" x2="1871" y2="75"/>
<line class="st0" x1="1881" y1="16" x2="1881" y2="64"/>
<line class="st0" x1="1891" y1="30" x2="1891" y2="50"/>
<line class="st0" x1="1901" y1="11" x2="1901" y2="69"/>
<line class="st0" x1="1911" y1="0" x2="1911" y2="80"/>
<line class="st0" x1="1921" y1="11" x2="1921" y2="69"/>
<line class="st0" x1="1931" y1="16" x2="1931" y2="64"/>
<line class="st0" x1="1941" y1="5" x2="1941" y2="75"/>
<line class="st0" x1="1951" y1="16" x2="1951" y2="64"/>
<line class="st0" x1="1961" y1="30" x2="1961" y2="50"/>
<line class="st0" x1="1971" y1="11" x2="1971" y2="69"/>
<line class="st0" x1="1981.3" y1="0" x2="1981.3" y2="80"/>
<line class="st0" x1="1991.3" y1="11" x2="1991.3" y2="69"/>
<line class="st0" x1="2001.3" y1="16" x2="2001.3" y2="64"/>
<line class="st0" x1="2011.3" y1="5" x2="2011.3" y2="75"/>
<line class="st0" x1="2021.3" y1="16" x2="2021.3" y2="64"/>
<line class="st0" x1="2031.3" y1="30" x2="2031.3" y2="50"/>
<line class="st0" x1="2041.3" y1="11" x2="2041.3" y2="69"/>
<line class="st0" x1="2051.3" y1="0" x2="2051.3" y2="80"/>
<line class="st0" x1="2061.3" y1="11" x2="2061.3" y2="69"/>
<line class="st0" x1="2071.3" y1="16" x2="2071.3" y2="64"/>
<line class="st0" x1="2081.3" y1="5" x2="2081.3" y2="75"/>
<line class="st0" x1="2091.3" y1="16" x2="2091.3" y2="64"/>
<line class="st0" x1="2101.3" y1="30" x2="2101.3" y2="50"/>
<line class="st0" x1="2111.3" y1="11" x2="2111.3" y2="69"/>
<line class="st0" x1="2121.3" y1="0" x2="2121.3" y2="80"/>
<line class="st0" x1="2131.3" y1="11" x2="2131.3" y2="69"/>
<line class="st0" x1="2131.3" y1="11" x2="2131.3" y2="69"/>
<line class="st0" x1="2141.3" y1="0" x2="2141.3" y2="80"/>
<line class="st0" x1="2151.3" y1="11" x2="2151.3" y2="69"/>
<line class="st0" x1="2161.3" y1="16" x2="2161.3" y2="64"/>
<line class="st0" x1="2171.3" y1="5" x2="2171.3" y2="75"/>
<line class="st0" x1="2181.3" y1="16" x2="2181.3" y2="64"/>
<line class="st0" x1="2191.3" y1="30" x2="2191.3" y2="50"/>
<line class="st0" x1="2201.3" y1="11" x2="2201.3" y2="69"/>
<line class="st0" x1="2211.3" y1="0" x2="2211.3" y2="80"/>
<line class="st0" x1="2221.3" y1="11" x2="2221.3" y2="69"/>
<line class="st0" x1="2231.3" y1="16" x2="2231.3" y2="64"/>
<line class="st0" x1="2241.3" y1="5" x2="2241.3" y2="75"/>
<line class="st0" x1="2251.3" y1="16" x2="2251.3" y2="64"/>
<line class="st0" x1="2261.3" y1="30" x2="2261.3" y2="50"/>
<line class="st0" x1="2271.3" y1="11" x2="2271.3" y2="69"/>
<line class="st0" x1="2281.3" y1="0" x2="2281.3" y2="80"/>
<line class="st0" x1="2291.3" y1="11" x2="2291.3" y2="69"/>
<line class="st0" x1="2301.3" y1="16" x2="2301.3" y2="64"/>
<line class="st0" x1="2311.3" y1="5" x2="2311.3" y2="75"/>
<line class="st0" x1="2321.3" y1="16" x2="2321.3" y2="64"/>
<line class="st0" x1="2331.3" y1="30" x2="2331.3" y2="50"/>
<line class="st0" x1="2341.3" y1="11" x2="2341.3" y2="69"/>
<line class="st0" x1="2351.3" y1="0" x2="2351.3" y2="80"/>
<line class="st0" x1="2361.3" y1="11" x2="2361.3" y2="69"/>
<line class="st0" x1="2371.3" y1="16" x2="2371.3" y2="64"/>
<line class="st0" x1="2381.3" y1="5" x2="2381.3" y2="75"/>
<line class="st0" x1="2391.3" y1="16" x2="2391.3" y2="64"/>
<line class="st0" x1="2401.3" y1="30" x2="2401.3" y2="50"/>
<line class="st0" x1="2411.3" y1="11" x2="2411.3" y2="69"/>
</svg>
